<?xml version="1.0" encoding="UTF-8"?>
<svg version="1.1" xmlns="http://www.w3.org/2000/svg" width="200" height="200">
<path d="M0 0 C66 0 132 0 200 0 C200 66 200 132 200 200 C134 200 68 200 0 200 C0 134 0 68 0 0 Z " fill="#5FC0B5" transform="translate(0,0)"/>
<path d="M0 0 C4.60282867 0.81873933 7.29146363 3.3128918 10.61328125 6.46484375 C11.41765625 7.20347656 12.22203125 7.94210938 13.05078125 8.703125 C19.04321977 14.43065389 23.95515308 20.62077834 28.61328125 27.46484375 C31.93997166 26.99910709 35.25108803 26.5341999 38.55078125 25.90234375 C44.95113014 24.98800819 50.32841819 25.41984324 56.53515625 27.02734375 C58.91170138 27.60218407 58.91170138 27.60218407 62.61328125 27.46484375 C64.42629638 25.47531395 65.9420429 23.58291348 67.48828125 21.40234375 C68.37780966 20.20101017 69.26842706 19.00048214 70.16015625 17.80078125 C70.58490234 17.22166992 71.00964844 16.64255859 71.44726562 16.04589844 C76.145342 9.67555869 81.43206791 4.05545042 88.61328125 0.46484375 C91.99798479 0.05207503 95.23455515 -0.02173655 98.61328125 0.46484375 C102.56862362 3.92576832 104.39714552 8.29225863 104.9140625 13.48828125 C104.97282147 30.29334622 102.05905061 47.80094928 89.9296875 60.18359375 C89.49527344 60.60640625 89.06085938 61.02921875 88.61328125 61.46484375 C89.40315598 63.38224958 90.19525273 65.29874016 90.98828125 67.21484375 C91.64957031 68.81585938 91.64957031 68.81585938 92.32421875 70.44921875 C93.50865405 73.3525355 93.50865405 73.3525355 94.76171875 75.5703125 C95.78259771 77.84153404 95.88007789 79.54564011 95.86328125 82.02734375 C95.87101562 83.17396484 95.87101562 83.17396484 95.87890625 84.34375 C95.61328125 86.46484375 95.61328125 86.46484375 93.61328125 89.46484375 C92.62328125 89.46484375 91.63328125 89.46484375 90.61328125 89.46484375 C90.57203125 90.61984375 90.53078125 91.77484375 90.48828125 92.96484375 C89.85583205 98.19185039 87.16358645 101.70258003 83.61328125 105.46484375 C82.62328125 106.12484375 81.63328125 106.78484375 80.61328125 107.46484375 C80.61328125 108.12484375 80.61328125 108.78484375 80.61328125 109.46484375 C82.4002956 110.76042915 84.24570228 111.97586145 86.11328125 113.15234375 C98.04347296 120.97933642 104.28299977 127.35523052 107.30078125 141.65234375 C107.76205272 144.25561145 108.2015948 146.85411832 108.61328125 149.46484375 C108.78585449 150.50753418 108.78585449 150.50753418 108.96191406 151.57128906 C110.4324685 160.56445435 110.4324685 160.56445435 110.61328125 164.46484375 C108.61328125 166.46484375 108.61328125 166.46484375 106.3993969 166.71093941 C105.47207315 166.70909582 104.54474941 166.70725224 103.58932495 166.70535278 C102.52639221 166.70810211 101.46345947 166.71085144 100.36831665 166.71368408 C98.6118129 166.70289825 98.6118129 166.70289825 96.81982422 166.69189453 C95.59058228 166.69218658 94.36134033 166.69247864 93.09484863 166.69277954 C89.71894635 166.69162281 86.343287 166.68157464 82.96742773 166.66763163 C79.44135595 166.65515093 75.91528113 166.65395587 72.38919067 166.65158081 C65.7097745 166.64535819 59.03042359 166.62893685 52.35103619 166.60888183 C44.74775793 166.5865471 37.14447659 166.57553552 29.5411737 166.56549096 C13.89850505 166.54457126 -1.74409844 166.50938016 -17.38671875 166.46484375 C-19.4740343 162.69386454 -19.41829702 160.75800713 -18.62890625 156.484375 C-18.30792969 154.73737305 -18.30792969 154.73737305 -17.98046875 152.95507812 C-17.6246875 151.13459961 -17.6246875 151.13459961 -17.26171875 149.27734375 C-17.04773437 148.08302734 -16.83375 146.88871094 -16.61328125 145.65820312 C-14.32617384 133.57775495 -10.98829409 124.00480932 -0.6640625 116.80859375 C3.05145664 114.29083194 6.81994008 111.86343225 10.61328125 109.46484375 C9.35585394 106.7124107 8.42980756 105.29077896 6.17578125 103.15234375 C2.21604647 98.99945117 0.61328125 95.18792172 0.61328125 89.46484375 C-0.00546875 89.38234375 -0.62421875 89.29984375 -1.26171875 89.21484375 C-3.38671875 88.46484375 -3.38671875 88.46484375 -4.5546875 86.671875 C-6.33468655 81.95028129 -4.04206493 77.01919047 -2.16796875 72.57421875 C-1.30086479 70.68877176 -0.41538128 68.81161863 0.4921875 66.9453125 C1.47570486 64.7692375 2.12997521 62.79448748 2.61328125 60.46484375 C1.03546875 59.35109375 1.03546875 59.35109375 -0.57421875 58.21484375 C-9.88258278 50.12632582 -12.59829026 33.67326038 -13.73828125 21.8046875 C-13.91848012 14.80150423 -13.49375551 7.50584097 -9.07421875 1.7578125 C-6.21176481 -0.43541031 -3.49229299 -0.12634924 0 0 Z " fill="#0C676A" transform="translate(54.38671875,17.53515625)"/>
<path d="M0 0 C2.64 0 5.28 0 8 0 C8.06993164 0.84071045 8.13986328 1.6814209 8.21191406 2.54760742 C8.4839106 5.73394626 8.76886917 8.91881372 9.06201172 12.10327148 C9.18519794 13.46903875 9.30354113 14.83525347 9.41650391 16.2019043 C10.79902349 33.34662836 10.79902349 33.34662836 19 48 C23.42218103 51.59753189 27.27580602 52.53001796 33 52 C33.804375 51.835 34.60875 51.67 35.4375 51.5 C40.6508505 50.48276088 45.8493832 50.7123458 51 52 C50.6875 53.875 50.6875 53.875 50 56 C49.01 56.66 48.02 57.32 47 58 C46.24167925 59.91772823 46.24167925 59.91772823 45.75 62.125 C42.53709222 72.08183303 35.46205868 76.38860216 26.55224609 80.97631836 C15.33118795 86.46760392 4.05449723 89.18054297 -8.0546875 85.17578125 C-31.22178917 75.92737594 -31.22178917 75.92737594 -35.375 67.06640625 C-36.22197162 64.96662244 -37.02154799 62.84679764 -37.76171875 60.70703125 C-39.12316952 57.73073667 -40.39781366 56.8571393 -43 55 C-43 54.01 -43 53.02 -43 52 C-36.84411383 50.46102846 -31.15826316 50.73676653 -25 52 C-19.49000111 52.62377346 -16.28304184 51.6329105 -11.85546875 48.515625 C-3.29221543 41.52079913 -2.74738463 31.28123328 -1.68359375 20.91748047 C-1.03148889 13.95172114 -0.48689507 6.97912071 0 0 Z " fill="#72C6BD" transform="translate(96,47)"/>
<path d="M0 0 C4.05836592 4.05836592 4.18979609 8.67874005 4.3125 14.1875 C4.21434941 25.95330177 1.75763177 39.14851272 -5 49 C-7.31763838 51.20984124 -9.1739629 52.58698145 -12 54 C-11.71571975 60.2541655 -9.252862 64.77651883 -6.27734375 70.23046875 C-5 73 -5 73 -5 77 C-6.21236328 76.98259766 -6.21236328 76.98259766 -7.44921875 76.96484375 C-8.51785156 76.95582031 -9.58648437 76.94679688 -10.6875 76.9375 C-12.27111328 76.92009766 -12.27111328 76.92009766 -13.88671875 76.90234375 C-16.73649131 76.99173436 -19.22875583 77.37166376 -22 78 C-28.01786769 78.81009757 -31.25847615 77.15243511 -35.98828125 73.69140625 C-45.45302058 65.73367396 -45.41984634 52.3937186 -46.44189453 40.96875 C-46.87920051 35.62662771 -47.08187023 30.35935145 -47 25 C-41.96643704 26.23631371 -36.97573932 27.5487427 -32 29 C-31.88527344 28.41734375 -31.77054688 27.8346875 -31.65234375 27.234375 C-30.95175938 24.83476865 -30.01807405 23.27139067 -28.5625 21.25 C-27.91474609 20.32960938 -27.91474609 20.32960938 -27.25390625 19.390625 C-26.84011719 18.93171875 -26.42632812 18.4728125 -26 18 C-25.34 18 -24.68 18 -24 18 C-23.773125 17.278125 -23.54625 16.55625 -23.3125 15.8125 C-21.70180279 12.36100597 -19.8178607 10.57282933 -17 8 C-16.02740234 7.09121094 -16.02740234 7.09121094 -15.03515625 6.1640625 C-10.25372111 1.80111423 -6.75912319 -0.86655426 0 0 Z " fill="#2C9191" transform="translate(151,22)"/>
<path d="M0 0 C6.35839755 0.38535743 10.23332196 5.18802252 14.4375 9.5 C17.1967094 12.19191161 20.11444913 14.40989717 23.23046875 16.66796875 C25 18 25 18 27 20 C27.73605469 19.7834375 28.47210938 19.566875 29.23046875 19.34375 C30.20628906 19.0653125 31.18210938 18.786875 32.1875 18.5 C33.15042969 18.2215625 34.11335938 17.943125 35.10546875 17.65625 C37.86560149 17.03047092 40.18710708 16.95025097 43 17 C42.12576683 53.74677305 42.12576683 53.74677305 34.59765625 62.51953125 C30.5754135 66.24674397 27.13200191 68.88370899 21.5625 69.1875 C18 69 18 69 15.671875 68.4921875 C12.62437157 67.93080529 9.78408911 67.90347155 6.6875 67.9375 C5.08455078 67.95103516 5.08455078 67.95103516 3.44921875 67.96484375 C2.64097656 67.97644531 1.83273438 67.98804687 1 68 C1.6583563 63.69223653 3.1619505 60.09285389 4.9375 56.125 C6.5602558 52.49672537 7.98433696 49.05562683 9.0625 45.2265625 C10.09695787 41.66630334 11.6053535 39.7808798 14 37 C14.33 36.01 14.66 35.02 15 34 C15.66 34 16.32 34 17 34 C18.52299523 31.06279492 19.80100302 28.0831351 21 25 C18.47211993 22.20127563 16.79588866 20.54226981 13 20 C13.474375 20.78375 13.94875 21.5675 14.4375 22.375 C15.33898023 23.88948678 16.21179485 25.4235897 17 27 C15.35 27 13.7 27 12 27 C12 28.32 12 29.64 12 31 C12.66 31.33 13.32 31.66 14 32 C12.68 33.98 11.36 35.96 10 38 C5.30532824 36.15602065 4.22489987 33.24909109 2.171875 28.8515625 C-1.75627992 19.2930522 -4.04863499 9.86854779 0 0 Z " fill="#2D9292" transform="translate(53,31)"/>
<path d="M0 0 C0.66 0 1.32 0 2 0 C2 0.66 2 1.32 2 2 C2.86431641 2.39445313 2.86431641 2.39445313 3.74609375 2.796875 C6.13090241 4.06987512 8.00976686 5.4939046 10.0625 7.25 C10.73410156 7.81203125 11.40570313 8.3740625 12.09765625 8.953125 C16.30835573 13.48373388 17.57833782 18.67244107 18.5625 24.625 C18.68471924 25.31851563 18.80693848 26.01203125 18.93286133 26.7265625 C19.2984915 28.81615211 19.6507687 30.90761417 20 33 C20.20882812 34.22460938 20.41765625 35.44921875 20.6328125 36.7109375 C21.09850488 39.47229655 21.55083449 42.23590457 22 45 C17.05 45 12.1 45 7 45 C6.67 41.04 6.34 37.08 6 33 C5.34 33 4.68 33 4 33 C3.67 36.96 3.34 40.92 3 45 C-4.92 45 -12.84 45 -21 45 C-17.46033034 40.28044045 -14.25201303 36.01264935 -10.3125 31.75 C-5.25494643 26.77915061 -5.25494643 26.77915061 -2.625 20.5 C-3.06769963 17.54866914 -4.16215923 16.29730096 -6 14 C-6 13.01 -6 12.02 -6 11 C-3.69 10.01 -1.38 9.02 1 8 C0.67 5.36 0.34 2.72 0 0 Z " fill="#2D9191" transform="translate(139,135)"/>
<path d="M0 0 C1.43088528 2.86177057 0.59991697 4.93375773 0 8 C2.31 9.32 4.62 10.64 7 12 C6.505 12.886875 6.01 13.77375 5.5 14.6875 C3.94965105 18.11118727 3.40342892 19.35777657 4 23 C5.62916176 25.49412511 7.60609594 27.62893355 9.625 29.8125 C14.0522501 34.71526955 18.01171631 39.68228842 22 45 C14.08 45 6.16 45 -2 45 C-2.33 41.04 -2.66 37.08 -3 33 C-4.485 32.505 -4.485 32.505 -6 32 C-6 36.29 -6 40.58 -6 45 C-10.62 45 -15.24 45 -20 45 C-19.60201845 38.03532293 -18.57031699 31.42120255 -17.0625 24.625 C-16.89266602 23.85236816 -16.72283203 23.07973633 -16.54785156 22.28369141 C-14.97400498 15.39324118 -13.5789523 11.0837047 -8.0625 6.3125 C-7.18722656 5.54550781 -6.31195313 4.77851563 -5.41015625 3.98828125 C-3 2 -3 2 0 0 Z " fill="#2D9191" transform="translate(60,135)"/>
<path d="M0 0 C11.60567575 1.8994901 20.34645816 15.27844874 26.82421875 24.27734375 C27.35660156 25.19644531 27.88898438 26.11554687 28.4375 27.0625 C27.9425 28.5475 27.9425 28.5475 27.4375 30.0625 C25.1196312 28.51725413 23.14566612 27.00673557 21.0625 25.1875 C19.01419652 23.40599235 16.97400361 21.7093599 14.8125 20.0625 C12.4375 18.0625 12.4375 18.0625 10.0625 15 C6.94779386 11.51449551 4.77464485 10.59325701 0.4375 9.0625 C-1.97893152 20.84260368 -0.18118809 32.50665017 6.0625 42.9375 C6.84625 43.96875 7.63 45 8.4375 46.0625 C9.0975 46.0625 9.7575 46.0625 10.4375 46.0625 C12.61114926 43.24480651 13.52427021 41.8434319 13.125 38.25 C12.898125 37.528125 12.67125 36.80625 12.4375 36.0625 C14.4175 35.5675 14.4175 35.5675 16.4375 35.0625 C15.9425 34.629375 15.4475 34.19625 14.9375 33.75 C13.4375 32.0625 13.4375 32.0625 13.4375 29.0625 C17.75142226 29.5418247 19.60319547 30.8082985 22.4375 34.0625 C21.1955393 37.50177579 19.88009716 40.31457819 17.4375 43.0625 C16.7775 43.0625 16.1175 43.0625 15.4375 43.0625 C15.31375 43.8978125 15.31375 43.8978125 15.1875 44.75 C14.20708063 47.77295973 12.47885889 49.64998494 10.4375 52.0625 C9.7775 53.0525 9.1175 54.0425 8.4375 55.0625 C-1.68388078 47.52107903 -4.7431652 37.23445681 -7.12890625 25.20703125 C-7.62481093 21.61060543 -7.73168419 18.13019262 -7.75 14.5 C-7.76417969 13.21996094 -7.77835938 11.93992187 -7.79296875 10.62109375 C-7.42039079 4.86823739 -6.44384006 0.11304983 0 0 Z " fill="#218D8E" transform="translate(52.5625,21.9375)"/>
<path d="M0 0 C4.81397943 4.05387741 5.88541926 7.0217942 7 13 C4.36 14.65 1.72 16.3 -1 18 C0.0209375 19.85625 0.0209375 19.85625 1.0625 21.75 C3.08716863 25.4312157 3.08716863 25.4312157 2.70336914 27.93554688 C1.94216078 30.16976343 1.07570091 31.40811501 -0.4765625 33.171875 C-0.97913574 33.75050293 -1.48170898 34.32913086 -1.99951172 34.92529297 C-2.53592285 35.52744629 -3.07233398 36.12959961 -3.625 36.75 C-4.72415411 37.99722332 -5.82311345 39.24461833 -6.921875 40.4921875 C-7.45361328 41.09256836 -7.98535156 41.69294922 -8.53320312 42.31152344 C-9.77426967 43.74015463 -10.96368864 45.21340358 -12.140625 46.6953125 C-16.2779958 51.89498121 -16.2779958 51.89498121 -20.4375 52.5 C-21.283125 52.335 -22.12875 52.17 -23 52 C-21.67492464 47.79746139 -20.09303867 43.8676003 -18.20703125 39.88671875 C-17.66208008 38.72825439 -17.11712891 37.56979004 -16.55566406 36.3762207 C-16.27049927 35.77298981 -15.98533447 35.16975891 -15.69152832 34.54824829 C-11.19588197 25.03175597 -6.79723348 15.4998187 -2.91723633 5.71166992 C-1.08094581 1.08094581 -1.08094581 1.08094581 0 0 Z " fill="#1F8B8D" transform="translate(130,128)"/>
<path d="M0 0 C2.64877838 3.21689804 4.22477674 6.49493386 5.85546875 10.3203125 C6.24999741 11.23886017 6.24999741 11.23886017 6.65249634 12.17596436 C7.50231008 14.15695522 8.3448494 16.14095308 9.1875 18.125 C10.06003854 20.16297169 10.93449972 22.20011127 11.80906677 24.23721313 C12.38842474 25.58702774 12.96717262 26.93710437 13.54530334 28.28744507 C15.92256549 33.8368561 18.35014876 39.36278915 20.8125 44.875 C21.30882935 45.98705811 21.30882935 45.98705811 21.81518555 47.12158203 C22.54217198 48.74829626 23.27083974 50.37425901 24 52 C21.33203125 52.33203125 21.33203125 52.33203125 18 52 C15.91872255 50.259019 14.3913948 48.74350385 12.6875 46.6875 C12.22182617 46.14859131 11.75615234 45.60968262 11.27636719 45.05444336 C10.31444239 43.93508593 9.36020185 42.80908131 8.41357422 41.67675781 C7.05577466 40.06615896 5.66269998 38.49569223 4.25390625 36.9296875 C3.42761719 35.98351562 2.60132812 35.03734375 1.75 34.0625 C1.00234375 33.20785156 0.2546875 32.35320312 -0.515625 31.47265625 C-2 29 -2 29 -1.83203125 26.390625 C-0.8064938 23.44401035 0.52975026 20.74872778 2 18 C-0.64 16.35 -3.28 14.7 -6 13 C-3 3.28571429 -3 3.28571429 0 0 Z " fill="#1F8B8D" transform="translate(69,128)"/>
<path d="M0 0 C0.76699219 0.20238281 1.53398437 0.40476562 2.32421875 0.61328125 C4.13455246 12.28206268 2.72942014 23.17083097 -3.17578125 33.55078125 C-4.00078125 34.56140625 -4.82578125 35.57203125 -5.67578125 36.61328125 C-6.99578125 36.61328125 -8.31578125 36.61328125 -9.67578125 36.61328125 C-10.66578125 34.63328125 -11.65578125 32.65328125 -12.67578125 30.61328125 C-12.01578125 30.61328125 -11.35578125 30.61328125 -10.67578125 30.61328125 C-10.67578125 29.29328125 -10.67578125 27.97328125 -10.67578125 26.61328125 C-12.32578125 26.61328125 -13.97578125 26.61328125 -15.67578125 26.61328125 C-14.35578125 24.30328125 -13.03578125 21.99328125 -11.67578125 19.61328125 C-12.43890625 19.94328125 -13.20203125 20.27328125 -13.98828125 20.61328125 C-16.67578125 21.61328125 -16.67578125 21.61328125 -19.67578125 21.61328125 C-17.23259433 14.58911886 -8.68917233 -1.25580739 0 0 Z " fill="#72C6BD" transform="translate(145.67578125,31.38671875)"/>
<path d="M0 0 C5.3683266 0.32535313 8.45313092 3.25775254 12 7 C19.14902786 15.8795465 19.14902786 15.8795465 20 22 C17.69 21.34 15.38 20.68 13 20 C13.474375 20.78375 13.94875 21.5675 14.4375 22.375 C15.33898023 23.88948678 16.21179485 25.4235897 17 27 C15.35 27 13.7 27 12 27 C12 28.32 12 29.64 12 31 C12.66 31.33 13.32 31.66 14 32 C12.68 33.98 11.36 35.96 10 38 C5.30532824 36.15602065 4.22489987 33.24909109 2.171875 28.8515625 C-1.75627992 19.2930522 -4.04863499 9.86854779 0 0 Z " fill="#72C6BD" transform="translate(53,31)"/>
<path d="M0 0 C2.66100875 2.25162279 2.58163784 4.85536495 2.86328125 8.23046875 C3.1630475 21.68839581 0.94546304 37.35906187 -7.80859375 48.140625 C-9.375 49.375 -9.375 49.375 -12.875 49.25 C-18.43879381 47.85905155 -20.03149688 44.55578903 -23 39.8125 C-23.61101562 38.84183594 -24.22203125 37.87117188 -24.8515625 36.87109375 C-26.375 34.375 -26.375 34.375 -27.375 32.375 C-23.859375 27.6875 -23.859375 27.6875 -22.375 26.375 C-21.055 26.375 -19.735 26.375 -18.375 26.375 C-20.25 31.25 -20.25 31.25 -21.375 32.375 C-20.055 32.705 -18.735 33.035 -17.375 33.375 C-17.601875 34.096875 -17.82875 34.81875 -18.0625 35.5625 C-18.45898299 39.13084692 -17.41877787 40.51371099 -15.375 43.375 C-13.02181694 42.4219363 -11.64019644 41.77324112 -10.21484375 39.6328125 C-5.55535996 28.61948718 -3.7764331 19.31610217 -5.375 7.375 C-7.355 6.715 -9.335 6.055 -11.375 5.375 C-10.8125 3.5 -10.8125 3.5 -9.375 1.375 C-5.96757438 -0.01321044 -3.61896378 -0.95235889 0 0 Z " fill="#218D8E" transform="translate(152.375,24.625)"/>
<path d="M0 0 C2.9375 1.1875 2.9375 1.1875 5 3 C5.625 5.4375 5.625 5.4375 5 8 C2.5 10.3125 2.5 10.3125 0 12 C0.33 13.65 0.66 15.3 1 17 C4.04386724 17.08226668 6.07175348 16.97608217 9 16 C9.33 15.01 9.66 14.02 10 13 C10.99 13 11.98 13 13 13 C12.69209738 15.84809926 12.34521809 17.58286148 10.5 19.8125 C6.71066731 21.61243303 3.12005443 21.19584766 -1 21 C-3.06173085 21 -5.12612511 21.00812255 -7.18359375 21.140625 C-11.24572871 21.33774767 -13.45236068 21.31293675 -17.0625 19.25 C-19 17 -19 17 -19 13 C-17.68 13.33 -16.36 13.66 -15 14 C-15 14.66 -15 15.32 -15 16 C-10.38492226 17.04214691 -10.38492226 17.04214691 -6 16 C-6 14.68 -6 13.36 -6 12 C-6.825 11.360625 -7.65 10.72125 -8.5 10.0625 C-11 8 -11 8 -11.5625 5.4375 C-11 3 -11 3 -9.4375 1.1875 C-6.07434531 -0.45095998 -3.70232314 -0.38971822 0 0 Z " fill="#0B6669" transform="translate(103,93)"/>
<path d="M0 0 C1.65 0 3.3 0 5 0 C5.79555428 3.15696142 6.5277218 6.32554273 7.25 9.5 C7.47429687 10.386875 7.69859375 11.27375 7.9296875 12.1875 C9.41108119 18.90315139 8.67364629 22.17659033 5 28 C3.02 28 1.04 28 -1 28 C-5.07259528 21.95281307 -5.07259528 21.95281307 -4.75 17.71875 C-3.98570341 13.92911273 -3.03204319 10.2698237 -1.9375 6.5625 C-1.57527344 5.32628906 -1.21304688 4.09007812 -0.83984375 2.81640625 C-0.56269531 1.88699219 -0.28554687 0.95757812 0 0 Z " fill="#2C9191" transform="translate(98,152)"/>
<path d="M0 0 C0.94101563 0.33773437 1.88203125 0.67546875 2.8515625 1.0234375 C4.10936266 1.47399278 5.36717586 1.92451168 6.625 2.375 C7.85476562 2.81585938 9.08453125 3.25671875 10.3515625 3.7109375 C13.55693619 4.84345711 16.77104598 5.93692898 20 7 C19.06409496 8.1055189 18.12620142 9.20935453 17.1875 10.3125 C16.66542969 10.92738281 16.14335938 11.54226562 15.60546875 12.17578125 C14.12827531 13.85424679 12.59960869 15.43882034 11 17 C7.51870262 16.04516375 6.22785781 15.34351666 4.19921875 12.28515625 C3.70035156 11.22167969 3.20148438 10.15820312 2.6875 9.0625 C2.17574219 8.00160156 1.66398437 6.94070312 1.13671875 5.84765625 C0 3 0 3 0 0 Z " fill="#70C4BC" transform="translate(75,130)"/>
<path d="M0 0 C0.33 0.66 0.66 1.32 1 2 C-0.109375 4.71484375 -0.109375 4.71484375 -1.75 7.9375 C-2.28109375 8.99839844 -2.8121875 10.05929688 -3.359375 11.15234375 C-4.74772349 13.56212006 -5.91898098 15.20104681 -8 17 C-11.21524305 15.59155282 -13.32183868 13.89655214 -15.75 11.375 C-16.36359375 10.74335938 -16.9771875 10.11171875 -17.609375 9.4609375 C-18.06828125 8.97882813 -18.5271875 8.49671875 -19 8 C-15.98333526 5.98889017 -13.50011273 5.08779834 -10.0625 4 C-6.54551457 2.8843268 -3.25062449 1.75455394 0 0 Z " fill="#70C5BC" transform="translate(124,130)"/>
<path d="M0 0 C4.31392226 0.4793247 6.16569547 1.7457985 9 5 C7.7580393 8.43927579 6.44259716 11.25207819 4 14 C3.34 14 2.68 14 2 14 C1.855625 14.61875 1.71125 15.2375 1.5625 15.875 C1 18 1 18 0 20 C-0.99 20 -1.98 20 -3 20 C-2.45276317 16.62537285 -1.9451 14.91765 0 12 C-0.3121764 9.35367713 -0.3121764 9.35367713 -1 7 C0.32 6.67 1.64 6.34 3 6 C2.505 5.566875 2.01 5.13375 1.5 4.6875 C0 3 0 3 0 0 Z " fill="#0C686B" transform="translate(66,51)"/>
<path d="M0 0 C-1.875 4.875 -1.875 4.875 -3 6 C-1.68 6.33 -0.36 6.66 1 7 C0.773125 7.721875 0.54625 8.44375 0.3125 9.1875 C-0.08697465 12.78277182 1.05436359 14.04263266 3 17 C3 17.99 3 18.98 3 20 C1.23046875 19.83984375 1.23046875 19.83984375 -1 19 C-2.88671875 16.56640625 -2.88671875 16.56640625 -4.6875 13.5625 C-5.28949219 12.57378906 -5.89148438 11.58507812 -6.51171875 10.56640625 C-7.38131901 9.06685935 -8.22477803 7.55044394 -9 6 C-4.5 0 -4.5 0 0 0 Z " fill="#0C686B" transform="translate(134,51)"/>
<path d="M0 0 C1.5625 1 1.5625 1 3 3 C2.75277795 8.02684833 1.7732399 12.27136027 0 17 C-0.66 17 -1.32 17 -2 17 C-2.86627399 15.40233897 -3.71766465 13.79660056 -4.5625 12.1875 C-5.03816406 11.29417969 -5.51382813 10.40085938 -6.00390625 9.48046875 C-7 7 -7 7 -6 4 C-4.04402816 2.60287726 -2.04563599 1.26220093 0 0 Z " fill="#6CC1B9" transform="translate(91,147)"/>
<path d="M0 0 C0.86625 0.7115625 0.86625 0.7115625 1.75 1.4375 C3.95298751 2.96735244 5.42770302 3.44338952 8 4 C6.45941767 9.01508715 4.97068161 13.6147081 2 18 C-0.56883972 15.43116028 -0.64180871 13.67857484 -1.25 10.125 C-1.44078125 9.07570312 -1.6315625 8.02640625 -1.828125 6.9453125 C-2.00801335 3.86268036 -1.6521517 2.55220449 0 0 Z " fill="#6EC3BA" transform="translate(108,147)"/>
<path d="M0 0 C2.0625 1.6875 2.0625 1.6875 4 4 C3.83849795 7.39154295 3.41703243 8.58296757 1 11 C-1.625 10.625 -1.625 10.625 -4 10 C-4.25 6.6875 -4.25 6.6875 -4 3 C-2 1.0625 -2 1.0625 0 0 Z " fill="#0B666A" transform="translate(82,81)"/>
<path d="M0 0 C1.65 1.32 3.3 2.64 5 4 C4.67 5.65 4.34 7.3 4 9 C1.36 9 -1.28 9 -4 9 C-4.33 7.35 -4.66 5.7 -5 4 C-3.35 2.68 -1.7 1.36 0 0 Z " fill="#2C9191" transform="translate(100,139)"/>
<path d="M0 0 C3.875 1.875 3.875 1.875 5 3 C5.1875 5.9375 5.1875 5.9375 5 9 C4.34 9.66 3.68 10.32 3 11 C1 10.8125 1 10.8125 -1 10 C-3 7 -3 7 -2.75 4.4375 C-2 2 -2 2 0 0 Z " fill="#0B6569" transform="translate(117,81)"/>
<path d="M0 0 C3.96 0 7.92 0 12 0 C11 3 11 3 9 4 C2.46666667 4.23333333 2.46666667 4.23333333 0 3 C0 2.01 0 1.02 0 0 Z " fill="#126F71" transform="translate(94,119)"/>
<path d="M0 0 C5.99291003 0.41330414 9.25036599 1.31903365 14 5 C13.67 5.66 13.34 6.32 13 7 C12.34 7 11.68 7 11 7 C11 6.34 11 5.68 11 5 C10.37351562 4.89042969 9.74703125 4.78085937 9.1015625 4.66796875 C7.87566406 4.43013672 7.87566406 4.43013672 6.625 4.1875 C5.81289063 4.03667969 5.00078125 3.88585937 4.1640625 3.73046875 C2 3 2 3 0 0 Z " fill="#2C9191" transform="translate(49,22)"/>
<path d="M0 0 C1.98 0 3.96 0 6 0 C6 0.66 6 1.32 6 2 C6.66 2 7.32 2 8 2 C8 2.99 8 3.98 8 5 C5.03 4.67 2.06 4.34 -1 4 C-0.67 2.68 -0.34 1.36 0 0 Z " fill="#0D696C" transform="translate(115,73)"/>
<path d="M0 0 C1.98 0 3.96 0 6 0 C6.33 1.32 6.66 2.64 7 4 C2.545 4.495 2.545 4.495 -2 5 C-1.34 3.35 -0.68 1.7 0 0 Z " fill="#0E696D" transform="translate(79,73)"/>
</svg>
