<?xml version="1.0" encoding="UTF-8"?>
<svg version="1.1" xmlns="http://www.w3.org/2000/svg" width="200" height="200">
<path d="M0 0 C66 0 132 0 200 0 C200 66 200 132 200 200 C134 200 68 200 0 200 C0 134 0 68 0 0 Z " fill="#5FBDB3" transform="translate(0,0)"/>
<path d="M0 0 C2.59639876 1.05834159 4.61215937 2.46817771 7 4 C8.67459309 4.39307169 10.36485371 4.72293606 12.0625 5 C18.35754846 6.08897652 22.90576442 9.10873085 27 14 C27.7578125 17.12890625 27.7578125 17.12890625 28.125 20.5625 C28.65025833 25.59072514 28.65025833 25.59072514 31 30 C31.66660924 35.80570138 31.8190629 41.20436211 29.375 46.5625 C26.80159022 49.20363109 24.06143913 50.95904058 21 53 C20.34 53.99 19.68 54.98 19 56 C16.57108669 59.64336997 14.99157094 61.14677064 11 63 C7.86920626 63.18245685 4.83739503 63.12644047 1.70703125 62.9453125 C-1.22532834 62.76182124 -1.22532834 62.76182124 -4 65 C-8.78316362 66.09494107 -12.79649022 66.43763992 -17.4375 64.75 C-20 63 -20 63 -21.38671875 61.4453125 C-23.39116262 59.64956376 -24.73425901 59.49452348 -27.375 59.125 C-31.97368099 58.1918261 -34.17278309 56.90821162 -37 53 C-37.8855679 50.78205493 -38.60169532 48.58595494 -39.2265625 46.28125 C-40.13814343 43.59254666 -41.47817144 41.38784149 -43 39 C-43.2266333 39.55461914 -43.4532666 40.10923828 -43.68676758 40.68066406 C-44.72272837 43.20626411 -45.76751285 45.72812207 -46.8125 48.25 C-47.16892578 49.12269531 -47.52535156 49.99539062 -47.89257812 50.89453125 C-48.24384766 51.73886719 -48.59511719 52.58320312 -48.95703125 53.453125 C-49.43619995 54.61569824 -49.43619995 54.61569824 -49.92504883 55.80175781 C-51 58 -51 58 -52.61425781 60.09960938 C-55.16963311 63.60402116 -53.9995461 67.62037311 -53.59375 71.73828125 C-52.93109907 75.37850182 -51.84834344 78.0404412 -49.83984375 81.12109375 C-48.14149449 84.92065652 -48.70157482 88.1872676 -50.1015625 92 C-54.7114635 101.07795889 -54.7114635 101.07795889 -58.4375 104.4375 C-61.24853898 106.67713161 -61.24853898 106.67713161 -61.125 109.375 C-60.75375 110.24125 -60.3825 111.1075 -60 112 C-59.75765625 112.65484375 -59.5153125 113.3096875 -59.265625 113.984375 C-57.64639214 117.87621539 -56.32517504 120.27179842 -52.375 122 C-49.26707262 123.09469611 -49.26707262 123.09469611 -47 123 C-46.67386719 121.87980469 -46.34773438 120.75960937 -46.01171875 119.60546875 C-45.57081483 118.13266203 -45.12938079 116.66001393 -44.6875 115.1875 C-44.47416016 114.44951172 -44.26082031 113.71152344 -44.04101562 112.95117188 C-43.82509766 112.23896484 -43.60917969 111.52675781 -43.38671875 110.79296875 C-43.19295654 110.1383667 -42.99919434 109.48376465 -42.79956055 108.80932617 C-41.85217793 106.66549333 -40.80321712 105.48722956 -39 104 C-36.3125 103.33984375 -36.3125 103.33984375 -33 102.9375 C-31.74703125 102.78152344 -30.4940625 102.62554687 -29.203125 102.46484375 C-27.80234602 102.3075388 -26.40128972 102.1526883 -25 102 C-24.26587891 101.9189502 -23.53175781 101.83790039 -22.77539062 101.75439453 C-18.81289567 101.32115499 -14.84880005 100.90774069 -10.8828125 100.5078125 C-7.66474356 100.18048598 -4.45306374 99.82125777 -1.2421875 99.4296875 C7.57267764 98.36362647 16.10517439 97.71712569 25 98 C26.74700017 103.13638974 25.07672053 107.33521819 23.5625 112.3125 C23.1617627 113.66867432 23.1617627 113.66867432 22.75292969 115.05224609 C20.53773323 122.44757488 18.16716312 129.79351259 15.75 137.125 C15.40912354 138.16180908 15.06824707 139.19861816 14.71704102 140.2668457 C14.23062134 141.71643677 14.23062134 141.71643677 13.734375 143.1953125 C13.30463379 144.47946045 13.30463379 144.47946045 12.86621094 145.78955078 C12 148 12 148 10 151 C9.34 151 8.68 151 8 151 C7.95875 151.61875 7.9175 152.2375 7.875 152.875 C7.441875 153.926875 7.441875 153.926875 7 155 C2.57508691 156.79881334 -1.95786196 157.62381674 -6.65234375 158.3671875 C-7.38133881 158.4868689 -8.11033386 158.60655029 -8.86141968 158.7298584 C-11.21939748 159.11611798 -13.57839805 159.49567244 -15.9375 159.875 C-19.19041202 160.40437012 -22.44285327 160.93660608 -25.6953125 161.46875 C-26.49683243 161.59937836 -27.29835236 161.73000671 -28.12416077 161.86459351 C-32.83677523 162.63523402 -37.54186586 163.4381189 -42.2421875 164.28125 C-43.28511963 164.4683252 -44.32805176 164.65540039 -45.40258789 164.84814453 C-47.28024743 165.18810504 -49.15711079 165.53250707 -51.03295898 165.88232422 C-51.86384033 166.0320166 -52.69472168 166.18170898 -53.55078125 166.3359375 C-54.59745972 166.53002197 -54.59745972 166.53002197 -55.6652832 166.72802734 C-62.59169372 167.53488934 -68.21013286 166.37228574 -74.80078125 164.4453125 C-76.17716011 164.05289871 -76.17716011 164.05289871 -77.5813446 163.65255737 C-79.50969347 163.10046239 -81.43674821 162.54382922 -83.36254883 161.98291016 C-86.31714302 161.12364971 -89.27624517 160.28153915 -92.23632812 159.44140625 C-94.1122693 158.90204977 -95.98793077 158.36171925 -97.86328125 157.8203125 C-99.19290642 157.44206833 -99.19290642 157.44206833 -100.5493927 157.05618286 C-101.36751938 156.8160849 -102.18564606 156.57598694 -103.02856445 156.32861328 C-104.1094207 156.01550705 -104.1094207 156.01550705 -105.21211243 155.69607544 C-107 155 -107 155 -109 153 C-109.625 150.875 -109.625 150.875 -110 149 C-117.63062687 148.86555607 -125.09615815 149.24342182 -132.6875 150 C-134.18700195 150.14308594 -134.18700195 150.14308594 -135.71679688 150.2890625 C-138.14501674 150.52142804 -140.57267899 150.75845635 -143 151 C-143 149.68 -143 148.36 -143 147 C-142.01 147 -141.02 147 -140 147 C-140.03480469 145.85273438 -140.06960937 144.70546875 -140.10546875 143.5234375 C-140.10054415 139.04598716 -139.37007566 134.96294521 -138.3125 130.625 C-138.13170898 129.88113037 -137.95091797 129.13726074 -137.76464844 128.37084961 C-135.29246317 118.70216253 -131.17507645 111.71810895 -124.57421875 104.2265625 C-122.61513221 101.9101221 -122.61513221 101.9101221 -123 98 C-123.804375 97.401875 -124.60875 96.80375 -125.4375 96.1875 C-128 94 -128 94 -128.75 90.3125 C-128.8325 89.219375 -128.915 88.12625 -129 87 C-129.33 86.67 -129.66 86.34 -130 86 C-129.68510413 80.85670082 -128.39254552 77.39726532 -125.7421875 72.9921875 C-124.72977346 70.27465508 -125.1699134 68.75571897 -126 66 C-127.15477666 63.56973833 -128.4413103 61.24313009 -129.74609375 58.890625 C-132.88355439 51.65784969 -133.34102981 44.36255014 -133.3125 36.5625 C-133.32861328 35.68529297 -133.34472656 34.80808594 -133.36132812 33.90429688 C-133.36620501 27.2863581 -132.91176424 19.57861847 -128.5715332 14.24438477 C-127 13 -127 13 -124.1875 12.5625 C-116.8069333 13.57551896 -112.31153281 19.39407613 -108 25 C-100.81534682 35.19849378 -100.81534682 35.19849378 -100 41 C-98.63875 40.505 -98.63875 40.505 -97.25 40 C-90.20250205 37.97617676 -82.10097827 38.42200483 -75 40 C-74.75378906 39.30519531 -74.50757812 38.61039063 -74.25390625 37.89453125 C-70.32975093 28.83596711 -63.30211967 19.44874033 -55 14 C-51.24170299 12.8293829 -49.39495155 12.28068797 -45.87890625 14.09375 C-43.23824057 16.77284532 -43.1885851 18.99607538 -42.75 22.6875 C-42.60046875 23.86699219 -42.4509375 25.04648437 -42.296875 26.26171875 C-42.19890625 27.16535156 -42.1009375 28.06898437 -42 29 C-40.20891875 25.41783749 -40.24762086 21.20953956 -39.79296875 17.26171875 C-38.73060213 12.89188561 -36.80068434 10.31099074 -33.17578125 7.671875 C-28.76505843 5.48963058 -25.11333021 4.54096278 -20.17578125 4.46875 C-17.77815452 4.13029011 -17.77815452 4.13029011 -15.62890625 2 C-10.98271373 -1.53469624 -5.58610372 -0.70780445 0 0 Z " fill="#0D6769" transform="translate(158,14)"/>
<path d="M0 0 C3.3724766 0.60964 5.99876184 1.75811215 9.03125 3.3671875 C9.52625 4.3571875 9.52625 4.3571875 10.03125 5.3671875 C11.91539354 5.71002544 13.81555419 5.96666066 15.71875 6.1796875 C21.40358933 7.02564573 24.14738306 8.16841243 28.03125 12.3671875 C29.2765106 14.8577087 28.99886907 16.35019867 28.84375 19.1171875 C28.77712225 23.00380649 28.81345239 24.05039097 31.09375 27.3671875 C33.59141366 31.23453768 33.36766868 33.57095359 32.7109375 38.02734375 C31.69119801 41.53782625 29.92209758 43.21585907 27.03125 45.3671875 C26.33 45.6765625 25.62875 45.9859375 24.90625 46.3046875 C22.72411245 47.30501587 22.72411245 47.30501587 21.65625 50.2421875 C19.66038494 54.08038954 17.86316165 55.41366391 14.03125 57.3671875 C10.86236577 57.69054303 8.53672343 57.50280232 5.46875 56.6796875 C2.92896736 56.09325004 2.92896736 56.09325004 0.71875 57.8046875 C-2.82588463 59.86552159 -6.00977923 60.23737711 -9.96875 59.3671875 C-11.98929804 57.72549222 -13.98918058 56.05806972 -15.96875 54.3671875 C-17.94980898 53.94183583 -17.94980898 53.94183583 -20.03125 53.8671875 C-23.96875 53.3671875 -23.96875 53.3671875 -26.90625 51.2421875 C-29.34857549 47.83773379 -29.45542747 45.4737677 -29.96875 41.3671875 C-30.649375 40.5834375 -31.33 39.7996875 -32.03125 38.9921875 C-34.49881764 35.64903135 -34.37371727 33.49826956 -34.3046875 29.453125 C-33.96875 27.3671875 -33.96875 27.3671875 -31.96875 24.3671875 C-31.65913838 21.79372261 -31.65913838 21.79372261 -31.59375 18.9921875 C-31.23782714 14.2652821 -30.64931873 11.6271198 -26.96875 8.3671875 C-23.77705342 6.41478309 -21.30237792 6.15337648 -17.59375 6.0546875 C-13.74342072 5.78949926 -11.56330776 5.53309676 -8.78125 2.8046875 C-5.69815917 0.13267545 -4.05176227 -0.26492292 0 0 Z " fill="#5EBCB2" transform="translate(152.96875,16.6328125)"/>
<path d="M0 0 C0.69029297 0.0095874 1.38058594 0.0191748 2.09179688 0.02905273 C0.00023956 8.93092473 -2.521143 17.66147352 -5.2421875 26.38647461 C-5.91513258 28.55134485 -6.57578609 30.71974548 -7.23632812 32.88842773 C-7.66787652 34.27928357 -8.10014174 35.66991724 -8.53320312 37.06030273 C-9.10941406 38.92525391 -9.10941406 38.92525391 -9.69726562 40.82788086 C-10.81210915 43.77502366 -11.72034616 45.78127314 -13.90820312 48.02905273 C-16.54384861 48.60356422 -18.86984749 48.94901493 -21.53320312 49.15405273 C-22.99576744 49.29925579 -24.45801709 49.44766585 -25.91992188 49.59936523 C-26.61778809 49.66929687 -27.3156543 49.73922852 -28.03466797 49.8112793 C-30.18846694 50.06162966 -32.24609169 50.49069083 -34.34570312 51.02905273 C-39.38732026 52.27245735 -44.51934288 52.71558133 -49.67163086 53.2746582 C-54.18587586 53.77940607 -58.49533248 54.54965461 -62.90429688 55.65405273 C-66.57168423 56.34034744 -70.1902806 56.14708202 -73.90820312 56.02905273 C-73.38233721 49.79241358 -72.29851235 44.35244419 -70.25585938 38.45092773 C-69.99566513 37.67646301 -69.73547089 36.90199829 -69.46739197 36.10406494 C-68.64362673 33.65943383 -67.80725363 31.21933412 -66.97070312 28.77905273 C-66.41325997 27.12828185 -65.85661259 25.47724203 -65.30078125 23.82592773 C-60.97630916 11.02967567 -60.97630916 11.02967567 -58.90820312 6.02905273 C-57.6475 5.88282471 -56.38679688 5.73659668 -55.08789062 5.5859375 C-50.38391055 5.04023156 -45.67998454 4.4940608 -40.97607422 3.94775391 C-38.94516433 3.71195114 -36.91424005 3.47627227 -34.88330078 3.24072266 C-31.95406305 2.90096556 -29.02487839 2.56075416 -26.09570312 2.22045898 C-24.74677979 2.06414757 -24.74677979 2.06414757 -23.37060547 1.90467834 C-19.39665985 1.44261599 -15.4251692 0.97037981 -11.45703125 0.46069336 C-7.59557131 -0.00897238 -3.88001664 -0.05388912 0 0 Z " fill="#258B86" transform="translate(178.908203125,114.970947265625)"/>
<path d="M0 0 C2.97 0 5.94 0 9 0 C14.16185267 8.40796621 16.33473334 16.62600038 18.08666992 26.25634766 C19.25743322 32.23087771 20.59540525 35.72761268 25 40 C27.7459726 41.3729863 29.9589047 41.12412634 33 41 C33.99 40.67 34.98 40.34 36 40 C36.41814884 48.08421097 34.52983999 52.33034479 29.375 58.625 C24.70658221 63.67677327 20.15634578 66.65702881 13.20703125 67.23046875 C10.78780361 67.24752959 8.41170314 67.18125535 6 67 C6.33 67.66 6.66 68.32 7 69 C13.35987804 69.20190089 18.85221129 68.6277833 25 67 C26.99785435 71.1205746 27.17835515 74.45194365 27 79 C25.68 78.34 24.36 77.68 23 77 C23.33 77.99 23.66 78.98 24 80 C24.06802967 81.72795352 24.08495645 83.45835365 24.0625 85.1875 C24.05347656 86.08855469 24.04445312 86.98960937 24.03515625 87.91796875 C24.02355469 88.60503906 24.01195312 89.29210937 24 90 C23.01 89.67 22.02 89.34 21 89 C20.34 91.64 19.68 94.28 19 97 C16.22881212 95.87099753 14.87507278 94.85670113 12.875 92.5625 C6.29709775 86.69958712 -3.55909681 86.23277796 -12 85 C-12.41572266 83.42798828 -12.41572266 83.42798828 -12.83984375 81.82421875 C-13.20567952 80.44529933 -13.57156767 79.0663938 -13.9375 77.6875 C-14.11990234 76.99720703 -14.30230469 76.30691406 -14.49023438 75.59570312 C-15.2593261 72.70112156 -16.05261576 69.84215271 -17 67 C-16.01 67 -15.02 67 -14 67 C-14 66.34 -14 65.68 -14 65 C-14.804375 64.79375 -15.60875 64.5875 -16.4375 64.375 C-22.55909162 62.01228043 -28.40878135 58.6319429 -32 53 C-32 52.34 -32 51.68 -32 51 C-33.32 50.34 -34.64 49.68 -36 49 C-35.47731534 46.23723823 -34.89130413 43.6739124 -34 41 C-28.83075501 39.47272307 -26.14215264 40.16978341 -21.25 42.4375 C-14.11759274 45.64618948 -7.9074983 46.46531186 -0.5 43.6875 C3.01203742 41.31687474 4.64686631 40.05940106 6 36 C7.06249467 23.40460859 6.33963254 11.16982877 0 0 Z " fill="#72C2B6" transform="translate(69,57)"/>
<path d="M0 0 C4.34048685 0 6.7237408 1.26526703 9.8125 4.125 C16.26769408 10.96576444 20.8201821 19.64036419 25 28 C28.96 27.67 32.92 27.34 37 27 C42.32259987 35.96437873 44.35337485 43.32981371 44.3125 53.6875 C44.32861328 54.51572266 44.34472656 55.34394531 44.36132812 56.19726562 C44.36515024 60.97108596 44.08281322 64.12257144 41 68 C35.85622383 72.62939855 31.85707038 73.38505184 25.11328125 73.3671875 C20.57360503 72.83176772 16.86887086 71.0171864 12.75 69.11328125 C9.20738852 67.67912745 6.75528156 67.57326346 3 68 C2.505 68.99 2.505 68.99 2 70 C1.01 69.67 0.02 69.34 -1 69 C-0.38022648 66.08835566 0.56078762 63.78548999 2 61.1875 C3.897224 57.44187762 5 54.27072107 5 50 C3.68110427 48.65238373 2.34602432 47.32052038 1 46 C-3.5010846 37.80558256 -3.58188106 29.32076663 -3.4375 20.1875 C-3.44458984 18.90423828 -3.45167969 17.62097656 -3.45898438 16.29882812 C-3.41589197 9.92446756 -3.20640199 5.6405676 0 0 Z " fill="#258C87" transform="translate(32,30)"/>
<path d="M0 0 C5.87667128 1.1970997 11.94374105 4.15328307 15.50390625 9.08203125 C17.95942123 14.25582849 18.63959543 19.32362795 19 25 C16.6875 25.25 16.6875 25.25 14 25 C12.02389614 22.95575462 11 21.8823175 11 19 C10.34 19 9.68 19 9 19 C11.02633069 23.32371893 11.02633069 23.32371893 14 27 C16.18038892 27.22875262 18.37153211 27.35950438 20.5625 27.4375 C28.86609985 27.92194748 35.78672715 29.77759638 43 34 C45.1519437 37.22791555 45.20086443 38.28400809 45 42 C43.5 40.625 43.5 40.625 42 39 C42 38.34 42 37.68 42 37 C40.68 36.67 39.36 36.34 38 36 C38.515625 36.556875 39.03125 37.11375 39.5625 37.6875 C41 40 41 40 40.6875 42.75 C40.460625 43.4925 40.23375 44.235 40 45 C38.68 45 37.36 45 36 45 C35.54625 44.030625 35.0925 43.06125 34.625 42.0625 C33.34213779 38.92920418 33.34213779 38.92920418 31 38 C31.33 38.598125 31.66 39.19625 32 39.8125 C33 42 33 42 33 45 C30.75 45.25 30.75 45.25 28 45 C25.6875 43 25.6875 43 24 41 C23.01 41.33 22.02 41.66 21 42 C18.06729194 42.27353832 15.1316004 42.27719904 12.1875 42.3125 C11.39279297 42.34150391 10.59808594 42.37050781 9.77929688 42.40039062 C4.35929525 42.45867021 1.26275148 41.65471105 -3 38 C-5.08010944 35.36371157 -7 32.43908898 -7 29 C-7.66 29 -8.32 29 -9 29 C-8.65066406 29.68707031 -8.30132812 30.37414062 -7.94140625 31.08203125 C-7.48636719 31.98308594 -7.03132813 32.88414062 -6.5625 33.8125 C-6.11003906 34.70582031 -5.65757813 35.59914062 -5.19140625 36.51953125 C-4 39 -4 39 -3 42 C-5.99480917 42.8723412 -8.63575911 43.10829766 -11.75 43.0625 C-12.54921875 43.05347656 -13.3484375 43.04445312 -14.171875 43.03515625 C-14.77515625 43.02355469 -15.3784375 43.01195312 -16 43 C-16.91713525 25.74427016 -11.0670459 12.90697661 0 0 Z " fill="#258B87" transform="translate(38,117)"/>
<path d="M0 0 C3.3892824 0.6455776 5.11016484 2.20072214 7.625 4.5 C8.2025 4.21125 8.78 3.9225 9.375 3.625 C10.48875 3.068125 10.48875 3.068125 11.625 2.5 C12.264375 2.108125 12.90375 1.71625 13.5625 1.3125 C16.29487327 0.23611053 17.85810805 0.62624465 20.625 1.5 C23.14794095 4.02294095 22.81377296 4.96286555 22.875 8.4375 C23.01031517 11.11066855 23.01031517 11.11066855 23.625 13.5 C26.44330246 15.61833745 26.44330246 15.61833745 29.625 16.5 C31.625 18.5 31.625 18.5 32.0625 21.375 C31.625 24.5 31.625 24.5 29.25 26.8125 C26.625 28.5 26.625 28.5 24.625 29.5 C24.01950913 32.00269558 23.66737512 34.50903559 23.28515625 37.0546875 C22.54872567 39.78253096 21.9248101 40.87819995 19.625 42.5 C13.29166667 42.16666667 13.29166667 42.16666667 10.625 39.5 C7.61194043 39.88878188 6.22814689 40.76456874 3.625 42.5 C0.30346329 42.91519209 -1.54390664 43.13717157 -4.25 41.0625 C-5.9244151 37.24855449 -5.61178107 33.60420515 -5.375 29.5 C-6.303125 29.231875 -7.23125 28.96375 -8.1875 28.6875 C-12.70543478 27.00434783 -12.70543478 27.00434783 -14.375 24.5 C-14.875 22.125 -14.875 22.125 -14.375 19.5 C-11.81379574 16.45424358 -10.16980342 14.76493447 -6.375 13.5 C-6.33761719 12.89671875 -6.30023438 12.2934375 -6.26171875 11.671875 C-5.96832813 8.10516547 -5.70554396 5.17761513 -4.125 1.9375 C-2.375 0.5 -2.375 0.5 0 0 Z " fill="#116D6E" transform="translate(143.375,25.5)"/>
<path d="M0 0 C2.59639876 1.05834159 4.61215937 2.46817771 7 4 C8.67459309 4.39307169 10.36485371 4.72293606 12.0625 5 C18.35754846 6.08897652 22.90576442 9.10873085 27 14 C27.7578125 17.12890625 27.7578125 17.12890625 28.125 20.5625 C28.65025833 25.59072514 28.65025833 25.59072514 31 30 C31.66660924 35.80570138 31.8190629 41.20436211 29.375 46.5625 C26.80159022 49.20363109 24.06143913 50.95904058 21 53 C20.34 53.99 19.68 54.98 19 56 C16.57108669 59.64336997 14.99157094 61.14677064 11 63 C7.86920626 63.18245685 4.83739503 63.12644047 1.70703125 62.9453125 C-1.22532834 62.76182124 -1.22532834 62.76182124 -4 65 C-8.78316362 66.09494107 -12.79649022 66.43763992 -17.4375 64.75 C-20 63 -20 63 -21.38671875 61.4453125 C-23.39116262 59.64956376 -24.73425901 59.49452348 -27.375 59.125 C-31.97368099 58.1918261 -34.17278309 56.90821162 -37 53 C-37.8837582 50.805264 -38.58426387 48.61232708 -39.2421875 46.33984375 C-40.01021356 43.96846433 -41.00379247 41.93944505 -42.1875 39.75 C-43.79272595 36.69823964 -44.43889723 34.51117783 -44 31 C-43.34 31 -42.68 31 -42 31 C-41.82984375 29.83082031 -41.6596875 28.66164063 -41.484375 27.45703125 C-41.24039952 25.90872533 -40.99556229 24.36055504 -40.75 22.8125 C-40.64042969 22.04357422 -40.53085938 21.27464844 -40.41796875 20.48242188 C-39.49637599 14.83160313 -37.97700168 11.16741021 -33.17578125 7.671875 C-28.76505843 5.48963058 -25.11333021 4.54096278 -20.17578125 4.46875 C-17.77815452 4.13029011 -17.77815452 4.13029011 -15.62890625 2 C-10.98271373 -1.53469624 -5.58610372 -0.70780445 0 0 Z M-15.23828125 6.8359375 C-18.3102452 8.8657496 -21.78169765 8.52829513 -25.37109375 8.69921875 C-29.2666338 9.14491947 -31.06887622 10.44466132 -34 13 C-36.1889555 16.28343324 -36.29346423 17.65843462 -36.5 21.5 C-36.70653577 25.34156538 -36.8110445 26.71656676 -39 30 C-39.49011256 33.04325705 -39.45549966 35.95249039 -39 39 C-37.71937515 40.7074998 -36.38232443 42.37373596 -35 44 C-34.4296875 46.1953125 -34.4296875 46.1953125 -34 48.625 C-33.32654685 52.09240183 -33.32654685 52.09240183 -31.375 55 C-28.59288899 56.17141516 -25.99295192 56.30293757 -23.0078125 56.55078125 C-21 57 -21 57 -18 59.5625 C-15.02247081 61.98174246 -14.49853293 62.38684568 -10.9375 62.5 C-7.08668534 62.31176089 -7.08668534 62.31176089 -4.6875 60.4375 C-1.43622397 58.69844538 -0.15427336 59.06875218 3.4375 59.5625 C7.40669165 60.04329037 8.73593123 60.11788784 12.5 58.4375 C15.1455103 56.13774732 15.1455103 56.13774732 16.4375 53 C18.08770085 49.83161437 18.49448373 49.52447347 21.5 48.0625 C24.63750082 46.46390022 25.03686059 45.93579123 26.9375 42.625 C27.99142628 39.0292515 28.55045012 36.69587937 28 33 C27.01 31.63875 27.01 31.63875 26 30.25 C23.8455035 26.74894319 23.83437415 25.9073864 24.0625 22 C24.21498194 18.38399973 24.0916615 16.37005523 21.8125 13.5 C17.70444803 9.84839825 14.7911906 9.03682235 9.4375 8.625 C5.27378396 8.25274724 3.73574042 7.24235902 1 4 C-5.35346663 1.27708573 -10.50977736 2.19811724 -15.23828125 6.8359375 Z " fill="#0E6A6C" transform="translate(158,14)"/>
<path d="M0 0 C2 0.75 2 0.75 4 3.75 C5.60508932 17.43058688 1.64640717 29.92811184 -5 41.75 C-8 40.75 -8 40.75 -9.75 38 C-11.06883276 34.57103483 -11.10867421 33.17681118 -10 29.75 C-10.66 29.42 -11.32 29.09 -12 28.75 C-11.34 27.43 -10.68 26.11 -10 24.75 C-13.93075644 25.32452746 -13.93075644 25.32452746 -17 27.75 C-19.625 27.375 -19.625 27.375 -22 26.75 C-22 22.7541344 -20.16893041 20.36973868 -18.0625 17.125 C-17.46103149 16.19264526 -17.46103149 16.19264526 -16.84741211 15.24145508 C-6.20080815 -0.77510102 -6.20080815 -0.77510102 0 0 Z " fill="#268B86" transform="translate(108,30.25)"/>
<path d="M0 0 C6.33521696 0.50681736 10.38351472 2.01508362 14.63671875 6.8671875 C18.89507209 12.33190244 21.13347234 16.72711875 21.375 23.75 C21.75426096 29.53194067 23.25031705 33.93546769 26 39 C22.42529543 41.38313638 21.21446465 41.64837918 17 41 C12.86092528 38.68879692 9.93827723 35.72972313 8.3125 31.25 C7.42682724 28.07135849 6.74529658 24.851955 6.04296875 21.62890625 C5.87047607 20.8390332 5.6979834 20.04916016 5.52026367 19.23535156 C5.17980032 17.64982442 4.85009158 16.06194024 4.5324707 14.47167969 C3.58084851 9.88609657 2.22527422 6.16606737 0 2 C0 1.34 0 0.68 0 0 Z " fill="#258A86" transform="translate(79,58)"/>
<path d="M0 0 C4.26268198 0.74413198 5.87877558 2.55665365 8.53515625 5.828125 C11.31052324 9.94306913 14.48489057 15.22717917 13.59765625 20.30078125 C13.40042969 20.86152344 13.20320313 21.42226563 13 22 C12.34 21.01 11.68 20.02 11 19 C8.94074861 18.27617533 8.94074861 18.27617533 7 18 C7.66 20.31 8.32 22.62 9 25 C8.01 25.33 7.02 25.66 6 26 C5.67 26.99 5.34 27.98 5 29 C5.66 29 6.32 29 7 29 C6.67 30.32 6.34 31.64 6 33 C3 32 3 32 1.8671875 30.109375 C1.53976563 29.33078125 1.21234375 28.5521875 0.875 27.75 C0.54242188 26.98171875 0.20984375 26.2134375 -0.1328125 25.421875 C-1.80176149 20.76084629 -2.15866027 16.43736227 -2.1875 11.5 C-2.20167969 10.3965625 -2.21585938 9.293125 -2.23046875 8.15625 C-2.00127637 5.01747977 -1.33493744 2.82816786 0 0 Z " fill="#70C1B5" transform="translate(36,41)"/>
<path d="M0 0 C4.75825372 1.59808219 8.16575762 2.74863643 11 7 C11.125 9.6875 11.125 9.6875 11 12 C9.5 10.625 9.5 10.625 8 9 C8 8.34 8 7.68 8 7 C6.68 6.67 5.36 6.34 4 6 C4.515625 6.556875 5.03125 7.11375 5.5625 7.6875 C7 10 7 10 6.6875 12.75 C6.460625 13.4925 6.23375 14.235 6 15 C4.68 15 3.36 15 2 15 C1.54625 14.030625 1.0925 13.06125 0.625 12.0625 C-0.65786221 8.92920418 -0.65786221 8.92920418 -3 8 C-2.67 8.598125 -2.34 9.19625 -2 9.8125 C-1 12 -1 12 -1 15 C-3.25 15.25 -3.25 15.25 -6 15 C-7.35432675 13.68799596 -8.68733482 12.35368596 -10 11 C-12.64184541 10.20318682 -12.64184541 10.20318682 -15 10 C-14.72270986 6.39522817 -14.37767684 3.65682929 -12.5625 0.5 C-8.38820796 -1.94348802 -4.58332548 -1.0571758 0 0 Z " fill="#6FC0B5" transform="translate(72,147)"/>
<path d="M0 0 C0.89589844 -0.01417969 1.79179688 -0.02835937 2.71484375 -0.04296875 C5.0625 0.1875 5.0625 0.1875 7.0625 2.1875 C7 5.1875 7 5.1875 6.0625 8.1875 C3.5 9.5625 3.5 9.5625 1.0625 10.1875 C1.0625 11.5075 1.0625 12.8275 1.0625 14.1875 C5.45564793 13.17589152 5.45564793 13.17589152 8.4375 10.0625 C8.746875 9.134375 8.746875 9.134375 9.0625 8.1875 C9.7225 8.5175 10.3825 8.8475 11.0625 9.1875 C10.55967225 12.90842538 10.06382503 14.86887981 7.0625 17.1875 C4.35546875 17.91796875 4.35546875 17.91796875 1.25 18.375 C0.23292969 18.53355469 -0.78414062 18.69210938 -1.83203125 18.85546875 C-9.91516504 19.71970318 -9.91516504 19.71970318 -12.8359375 18.19921875 C-14.2596852 16.92236565 -15.6012054 15.55561114 -16.9375 14.1875 C-16.9375 13.1975 -16.9375 12.2075 -16.9375 11.1875 C-14.9375 12.1875 -12.9375 13.1875 -10.9375 14.1875 C-8.6045134 14.22772391 -6.27043334 14.23070247 -3.9375 14.1875 C-3.2775 12.8675 -2.6175 11.5475 -1.9375 10.1875 C-2.783125 9.445 -3.62875 8.7025 -4.5 7.9375 C-6.9375 5.1875 -6.9375 5.1875 -6.8125 2.9375 C-5.12783131 -0.43183737 -3.63813984 0.02609856 0 0 Z " fill="#0C6769" transform="translate(88.9375,98.8125)"/>
<path d="M0 0 C0.495 0.99 0.495 0.99 1 2 C-1.70726366 2.5064814 -4.41557124 3.005351 -7.125 3.5 C-7.88554688 3.64308594 -8.64609375 3.78617188 -9.4296875 3.93359375 C-13.68042914 4.70312456 -17.65859197 5.16644376 -22 5 C-22 5.66 -22 6.32 -22 7 C-11.11 5.515 -11.11 5.515 0 4 C0 4.66 0 5.32 0 6 C-1.41538717 6.33872513 -2.83237963 6.67074624 -4.25 7 C-5.03890625 7.185625 -5.8278125 7.37125 -6.640625 7.5625 C-9 8 -9 8 -13 8 C-13 8.66 -13 9.32 -13 10 C-12.319375 9.835 -11.63875 9.67 -10.9375 9.5 C-7.5835178 8.92910941 -4.39610195 8.93340977 -1 9 C-1.33 10.32 -1.66 11.64 -2 13 C-7.70796662 14.17744703 -11.89021228 13.67002518 -17.48828125 12.19921875 C-18.27269089 12.00278275 -19.05710052 11.80634674 -19.86528015 11.60395813 C-21.51144377 11.18883022 -23.15603838 10.76743492 -24.79907227 10.34008789 C-27.3187631 9.68587384 -29.84319628 9.05341491 -32.36914062 8.42382812 C-33.97167565 8.01688894 -35.57390122 7.60872868 -37.17578125 7.19921875 C-38.3085424 6.914701 -38.3085424 6.914701 -39.46418762 6.62443542 C-44.76813935 5.23186065 -44.76813935 5.23186065 -47 3 C-44.3125 2.3125 -44.3125 2.3125 -41 2 C-40.278125 2.474375 -39.55625 2.94875 -38.8125 3.4375 C-34.46241079 5.85421623 -29.87857564 5.55983655 -25 5 C-24.38874268 4.68135986 -23.77748535 4.36271973 -23.14770508 4.03442383 C-20.72283187 2.86650434 -18.6791694 2.50574224 -16.015625 2.1484375 C-15.08105469 2.01953125 -14.14648438 1.890625 -13.18359375 1.7578125 C-12.21550781 1.63148438 -11.24742188 1.50515625 -10.25 1.375 C-9.26644531 1.2409375 -8.28289062 1.106875 -7.26953125 0.96875 C-4.84713544 0.63949232 -2.42404916 0.31681523 0 0 Z " fill="#218480" transform="translate(103,159)"/>
<path d="M0 0 C0.66010723 9.91627751 -0.46492388 17.13801519 -5 26 C-5.33 26.66 -5.66 27.32 -6 28 C-6.66 28 -7.32 28 -8 28 C-8.93423645 24.98968256 -9.04449911 24.13349732 -8 21 C-8.66 20.67 -9.32 20.34 -10 20 C-9.34 18.68 -8.68 17.36 -8 16 C-9.98 16.33 -11.96 16.66 -14 17 C-12.69933317 13.47761996 -11.16259119 10.48505871 -9.0625 7.375 C-8.55847656 6.61960937 -8.05445312 5.86421875 -7.53515625 5.0859375 C-3.79213483 0 -3.79213483 0 0 0 Z " fill="#71C2B6" transform="translate(106,39)"/>
<path d="M0 0 C5.20930233 -0.52093023 5.20930233 -0.52093023 8 0 C10.5625 2.75 10.5625 2.75 12 6 C11.81307501 9.1777248 10.47058444 11.05883111 9 14 C6.03 14 3.06 14 0 14 C-3.17098446 9.68393782 -3.17098446 9.68393782 -4 7 C-3.11987965 4.15061038 -1.79801213 2.44729428 0 0 Z " fill="#5DBAB0" transform="translate(148,40)"/>
<path d="M0 0 C0.66 0 1.32 0 2 0 C2.42756676 8.26629068 0.15146778 13.46747661 -5.3046875 19.71875 C-7 21 -7 21 -10.875 20.9375 C-11.90625 20.628125 -12.9375 20.31875 -14 20 C-14 19.67 -14 19.34 -14 19 C-12.906875 18.9175 -11.81375 18.835 -10.6875 18.75 C-7.00979769 18.33787841 -7.00979769 18.33787841 -5 16.125 C-3.6518065 13.89445494 -3.6518065 13.89445494 -5 11 C-5.391875 11.825 -5.78375 12.65 -6.1875 13.5 C-6.785625 14.325 -7.38375 15.15 -8 16 C-10.6875 16.3125 -10.6875 16.3125 -13 16 C-13 14.68 -13 13.36 -13 12 C-11.35 11.34 -9.7 10.68 -8 10 C-8 7.36 -8 4.72 -8 2 C-6.2984375 1.7834375 -6.2984375 1.7834375 -4.5625 1.5625 C-1.19222799 1.38828522 -1.19222799 1.38828522 0 0 Z " fill="#69BCB1" transform="translate(103,97)"/>
<path d="M0 0 C-4.76265852 2.26241683 -9.64238904 2.88303175 -14.8046875 3.65625 C-16.23894577 3.87794861 -16.23894577 3.87794861 -17.70217896 4.10412598 C-20.75895817 4.57500706 -23.81695272 5.03743417 -26.875 5.5 C-28.89330843 5.81068343 -30.91153849 6.12187641 -32.9296875 6.43359375 C-43.60513976 8.07466235 -54.28552251 9.63499041 -65 11 C-65.33 10.01 -65.66 9.02 -66 8 C-62.52832634 7.23251564 -59.21533699 6.84811108 -55.66796875 6.6640625 C-44.05650783 5.82917669 -32.57641085 3.69482151 -21.09008789 1.86035156 C-17.99445753 1.36777359 -14.89770975 0.8827753 -11.80078125 0.3984375 C-10.84569168 0.24329681 -9.89060211 0.08815613 -8.90657043 -0.07168579 C-8.0277269 -0.20867889 -7.14888336 -0.345672 -6.2434082 -0.48681641 C-5.46987503 -0.61037506 -4.69634186 -0.73393372 -3.89936829 -0.86123657 C-2 -1 -2 -1 0 0 Z " fill="#1B7B79" transform="translate(163,167)"/>
<path d="M0 0 C8.44957923 1.3520671 16.69476862 3.3499299 24.96459961 5.51391602 C27.08910577 6.06945719 29.21530097 6.61814539 31.34179688 7.16601562 C41.71266617 9.85633308 41.71266617 9.85633308 44 11 C43.67 11.99 43.34 12.98 43 14 C37.35476732 12.50132287 31.71331594 10.98940063 26.07495117 9.46508789 C24.15633677 8.94840683 22.23673988 8.43535981 20.31616211 7.92602539 C17.5557651 7.19329659 14.7991648 6.44757301 12.04296875 5.69921875 C11.18350143 5.47409103 10.32403412 5.24896332 9.43852234 5.01701355 C8.63791885 4.79701187 7.83731537 4.57701019 7.01245117 4.3503418 C6.3085173 4.16158981 5.60458344 3.97283783 4.87931824 3.77836609 C2.71460957 2.8817985 1.5386744 1.74360796 0 0 Z " fill="#208380" transform="translate(51,164)"/>
<path d="M0 0 C0.66 0.66 1.32 1.32 2 2 C1.75 5.5625 1.75 5.5625 1 9 C-2.04300316 10.52150158 -4.654085 10.23899393 -8 10 C-10.1387261 6.79191085 -10.47730962 5.72301503 -10 2 C-6.32653229 -0.44897847 -4.33643601 -0.31537716 0 0 Z " fill="#0D686A" transform="translate(127,75)"/>
<path d="M0 0 C0.721875 0.103125 1.44375 0.20625 2.1875 0.3125 C3.44291557 4.07874671 2.55811958 5.68438934 1.1875 9.3125 C0.5275 9.3125 -0.1325 9.3125 -0.8125 9.3125 C-1.1425 8.6525 -1.4725 7.9925 -1.8125 7.3125 C-2.8025 7.8075 -2.8025 7.8075 -3.8125 8.3125 C-3.296875 8.910625 -2.78125 9.50875 -2.25 10.125 C-1.775625 10.846875 -1.30125 11.56875 -0.8125 12.3125 C-1.1425 13.3025 -1.4725 14.2925 -1.8125 15.3125 C-3.75 15 -3.75 15 -5.8125 14.3125 C-6.1425 13.3225 -6.4725 12.3325 -6.8125 11.3125 C-7.4725 11.3125 -8.1325 11.3125 -8.8125 11.3125 C-8.54066925 7.41625918 -8.00155227 5.55406679 -5.5625 2.4375 C-2.8125 0.3125 -2.8125 0.3125 0 0 Z " fill="#6EC0B4" transform="translate(106.8125,139.6875)"/>
<path d="M0 0 C0.99 0.66 1.98 1.32 3 2 C4.65549531 2.38499891 6.3222433 2.72793135 8 3 C7.01 3.66 6.02 4.32 5 5 C1.47796924 7.98838973 0.21128288 10.55862943 -1 15 C-0.34 15.33 0.32 15.66 1 16 C-2.13498292 17.85776765 -4.37471432 18.20140476 -8 18 C-8 16.68 -8 15.36 -8 14 C-7.01 13.67 -6.02 13.34 -5 13 C-4.89042969 12.31292969 -4.78085938 11.62585938 -4.66796875 10.91796875 C-4.50941406 10.01691406 -4.35085937 9.11585938 -4.1875 8.1875 C-4.03667969 7.29417969 -3.88585937 6.40085938 -3.73046875 5.48046875 C-2.94604607 2.81678744 -2.11372201 1.74309678 0 0 Z " fill="#248984" transform="translate(99,136)"/>
<path d="M0 0 C2.375 0.3125 2.375 0.3125 5 1 C7 4 7 4 6.81640625 6.35546875 C5.89349853 9.34498322 4.59740104 11.66372175 2.9375 14.3125 C2.38964844 15.19550781 1.84179688 16.07851562 1.27734375 16.98828125 C0.64505859 17.98408203 0.64505859 17.98408203 0 19 C-0.66 18.67 -1.32 18.34 -2 18 C-1.34 15.69 -0.68 13.38 0 11 C-0.66 11 -1.32 11 -2 11 C-1.67 9.68 -1.34 8.36 -1 7 C-0.01 7 0.98 7 2 7 C1.34 6.01 0.68 5.02 0 4 C0 2.68 0 1.36 0 0 Z " fill="#0D6769" transform="translate(43,59)"/>
<path d="M0 0 C1.125 6.625 1.125 6.625 0 10 C-5.75 9.25 -5.75 9.25 -8 7 C-7.81769828 4.17432328 -7.20622122 3.19247314 -5.125 1.25 C-3 0 -3 0 0 0 Z " fill="#5CB9B0" transform="translate(140,42)"/>
<path d="M0 0 C1.98 0.66 3.96 1.32 6 2 C6.33 3.65 6.66 5.3 7 7 C3.375 10 3.375 10 0 10 C-2.21538462 4.58461538 -2.21538462 4.58461538 -1.125 1.625 C-0.75375 1.08875 -0.3825 0.5525 0 0 Z " fill="#5DBAB1" transform="translate(165,42)"/>
<path d="M0 0 C3.40667322 0.44824648 5.07914607 1.05276405 8 3 C7 5 6 7 5 9 C3.02 9 1.04 9 -1 9 C-1.09765625 2.84765625 -1.09765625 2.84765625 -1 1 C-0.67 0.67 -0.34 0.34 0 0 Z " fill="#5BB8AF" transform="translate(142,29)"/>
<path d="M0 0 C6.64615385 1.47692308 6.64615385 1.47692308 8.4375 4.125 C8.7159375 5.053125 8.7159375 5.053125 9 6 C4.56923077 9.07692308 4.56923077 9.07692308 1.6875 8.6875 C1.130625 8.460625 0.57375 8.23375 0 8 C0 5.36 0 2.72 0 0 Z " fill="#5EBBB2" transform="translate(141,56)"/>
<path d="M0 0 C0.8353125 0.37125 0.8353125 0.37125 1.6875 0.75 C1.6875 3.39 1.6875 6.03 1.6875 8.75 C-0.5625 9.0625 -0.5625 9.0625 -3.3125 8.75 C-5.625 6.25 -5.625 6.25 -7.3125 3.75 C-2.88173077 -0.31153846 -2.88173077 -0.31153846 0 0 Z " fill="#5CB9B0" transform="translate(161.3125,29.25)"/>
<path d="M0 0 C0.66 0 1.32 0 2 0 C0.62820313 7.48252838 -1.92163279 14.05604954 -5 21 C-5.66 21 -6.32 21 -7 21 C-6.36591429 16.30920682 -5.11470488 12.13263233 -3.5 7.6875 C-2.83484375 5.83705078 -2.83484375 5.83705078 -2.15625 3.94921875 C-1 1 -1 1 0 0 Z " fill="#096366" transform="translate(148,132)"/>
<path d="M0 0 C0 2.64 0 5.28 0 8 C-2.25 8.75 -2.25 8.75 -5 9 C-7.3125 7.0625 -7.3125 7.0625 -9 5 C-7.31794973 2.25560219 -6.53239 1.15211143 -3.375 0.25 C-1 0 -1 0 0 0 Z " fill="#5EBCB2" transform="translate(163,56)"/>
<path d="M0 0 C0.99 0 1.98 0 3 0 C1.47291037 3.43595166 -0.59927045 6.11912454 -3 9 C-1.68 10.32 -0.36 11.64 1 13 C0.67 13.99 0.34 14.98 0 16 C-2.31 14.02 -4.62 12.04 -7 10 C-5 6 -5 6 -3 3 C-2.34 3 -1.68 3 -1 3 C-0.67 2.01 -0.34 1.02 0 0 Z " fill="#096366" transform="translate(137,136)"/>
<path d="M0 0 C1.67542976 0.28604898 3.34385343 0.61781233 5 1 C6.125 5.75 6.125 5.75 5 8 C2.625 8.125 2.625 8.125 0 8 C-0.66 7.34 -1.32 6.68 -2 6 C-1.44444444 1.44444444 -1.44444444 1.44444444 0 0 Z " fill="#0C6769" transform="translate(150,43)"/>
<path d="M0 0 C1.98 1.65 3.96 3.3 6 5 C5.38722388 7.96175123 4.74627478 9.38058783 3 12 C2.34 12 1.68 12 1 12 C0.34 13.32 -0.32 14.64 -1 16 C-1.66 16 -2.32 16 -3 16 C-2.45773019 12.20411134 -0.79872437 10.52788007 2 8 C1.67 7.4225 1.34 6.845 1 6.25 C0 4 0 4 0 0 Z " fill="#096366" transform="translate(153,134)"/>
<path d="M0 0 C1.99954746 -0.04254356 4.00041636 -0.04080783 6 0 C7 1 7 1 7.0625 3.5625 C7.041875 4.366875 7.02125 5.17125 7 6 C4.125 6.625 4.125 6.625 1 7 C0.34 6.34 -0.32 5.68 -1 5 C-0.625 2.375 -0.625 2.375 0 0 Z " fill="#0F6B6C" transform="translate(110,84)"/>
<path d="M0 0 C0.53560547 0.76763672 0.53560547 0.76763672 1.08203125 1.55078125 C-0.81288881 1.88926777 -2.70895341 2.22135036 -4.60546875 2.55078125 C-5.66121094 2.73640625 -6.71695313 2.92203125 -7.8046875 3.11328125 C-10.56700937 3.50146199 -13.13538918 3.63338101 -15.91796875 3.55078125 C-15.58796875 2.56078125 -15.25796875 1.57078125 -14.91796875 0.55078125 C-12.81778362 0.13433941 -10.71255833 -0.25675178 -8.60546875 -0.63671875 C-7.43371094 -0.85714844 -6.26195313 -1.07757813 -5.0546875 -1.3046875 C-1.91796875 -1.44921875 -1.91796875 -1.44921875 0 0 Z " fill="#218481" transform="translate(100.91796875,156.44921875)"/>
<path d="M0 0 C0.99 0 1.98 0 3 0 C3.33 2.31 3.66 4.62 4 7 C2.02 7.99 2.02 7.99 0 9 C-2 6 -2 6 -1.6875 3.375 C-1 1 -1 1 0 0 Z " fill="#096366" transform="translate(67,88)"/>
<path d="M0 0 C2.0625 0.4375 2.0625 0.4375 4 1 C4 3.31 4 5.62 4 8 C2.68 8 1.36 8 0 8 C-0.38063221 5.6739143 -0.71269945 3.33944736 -1 1 C-0.67 0.67 -0.34 0.34 0 0 Z " fill="#096366" transform="translate(93,87)"/>
<path d="M0 0 C1.65 0.33 3.3 0.66 5 1 C4.67 1.99 4.34 2.98 4 4 C2.35 3.67 0.7 3.34 -1 3 C-0.67 2.01 -0.34 1.02 0 0 Z " fill="#58B4AB" transform="translate(121,78)"/>
</svg>
