<?xml version="1.0" encoding="UTF-8"?>
<svg version="1.1" xmlns="http://www.w3.org/2000/svg" width="200" height="200">
<path d="M0 0 C66 0 132 0 200 0 C200 66 200 132 200 200 C134 200 68 200 0 200 C0 134 0 68 0 0 Z " fill="#61C1B6" transform="translate(0,0)"/>
<path d="M0 0 C21.39475624 -2.31687415 21.39475624 -2.31687415 29.27026367 2.97680664 C34.47668501 7.53823861 36.15847089 12.05485514 36.69636536 18.96620178 C37.15232605 27.94326497 36.97332362 37.06325462 36 46 C35 47 35 47 31.67358398 47.11352539 C30.19774444 47.11336629 28.72189931 47.10767314 27.24609375 47.09765625 C26.47064713 47.0962413 25.6952005 47.09482635 24.89625549 47.09336853 C22.40996506 47.08775345 19.9237634 47.07519846 17.4375 47.0625 C15.75586067 47.05748694 14.07421994 47.0529237 12.39257812 47.04882812 C8.26168434 47.03777913 4.13085724 47.02050445 0 47 C-0.99 45.02 -0.99 45.02 -2 43 C-2.36351562 43.77923828 -2.36351562 43.77923828 -2.734375 44.57421875 C-4.3659678 47.96918685 -5.73202619 50.71029858 -8.3125 53.5 C-10.36190053 56.53614894 -10.26172293 58.51597531 -9.6328125 62.08203125 C-8.71532776 64.86280289 -6.82756976 66.74599729 -5 69 C-5.25 71.8125 -5.25 71.8125 -6 74 C-7.485 74.495 -7.485 74.495 -9 75 C-8.9175 76.03125 -8.835 77.0625 -8.75 78.125 C-9.03952292 82.61260533 -10.15955923 84.5747626 -13 88 C-13.66 88 -14.32 88 -15 88 C-14.40832031 88.68964844 -13.81664062 89.37929687 -13.20703125 90.08984375 C-1.33231084 104.21165644 -1.33231084 104.21165644 -0.6875 111.5625 C-0.790625 112.366875 -0.89375 113.17125 -1 114 C0.11375 113.95875 1.2275 113.9175 2.375 113.875 C6 114 6 114 8 116 C8.2165625 117.918125 8.2165625 117.918125 8.4375 119.875 C9.22515825 124.10402918 10.82383796 125.98743995 14.01226807 128.81681824 C18.77403139 133.14376628 21.60222737 136.79165649 22.07676697 143.33441162 C22.13207554 147.13349175 21.97112949 150.89585036 21.75 154.6875 C21.70327891 156.26222795 21.66157845 157.83711319 21.625 159.41210938 C21.29866814 170.70133186 21.29866814 170.70133186 20 172 C18.31939999 172.09834335 16.63464667 172.12632003 14.95117188 172.12698364 C13.31051758 172.13121338 13.31051758 172.13121338 11.63671875 172.13552856 C10.42628906 172.13350433 9.21585938 172.1314801 7.96875 172.12939453 C6.70224609 172.13114685 5.43574219 172.13289917 4.13085938 172.13470459 C0.64748181 172.13927845 -2.83586627 172.13748956 -6.31924438 172.1343255 C-9.95697105 172.13180166 -13.59469512 172.13413951 -17.23242188 172.13571167 C-23.34245255 172.13753329 -29.45247116 172.13512725 -35.5625 172.13037109 C-42.63627845 172.12492849 -49.71002809 172.12669115 -56.78380585 172.1321975 C-62.84663897 172.13672884 -68.9094634 172.13737908 -74.97229767 172.13475883 C-78.59799167 172.13319617 -82.2236721 172.13300199 -85.84936523 172.13629532 C-89.88917765 172.13970819 -93.92894003 172.13498396 -97.96875 172.12939453 C-99.17917969 172.13141876 -100.38960937 172.13344299 -101.63671875 172.13552856 C-102.73048828 172.13270874 -103.82425781 172.12988892 -104.95117188 172.12698364 C-105.90761597 172.12660662 -106.86406006 172.12622959 -107.8494873 172.12584114 C-110 172 -110 172 -111 171 C-111.13809764 168.52586164 -111.21308712 166.08158608 -111.23828125 163.60546875 C-111.246353 162.86170486 -111.25442474 162.11794098 -111.26274109 161.35163879 C-111.27659712 159.77375632 -111.28731246 158.19584369 -111.29516602 156.61791992 C-111.31235672 154.20758912 -111.35622313 151.79863785 -111.40039062 149.38867188 C-111.41051928 147.85678094 -111.41903484 146.32487832 -111.42578125 144.79296875 C-111.44328934 144.07304245 -111.46079742 143.35311615 -111.47883606 142.6113739 C-111.46340186 139.03884753 -111.26523058 137.32549138 -108.97338867 134.51293945 C-108.32217041 134.01366943 -107.67095215 133.51439941 -107 133 C-108.65 133 -110.3 133 -112 133 C-115.01400934 125.87088812 -116.67224732 118.47704543 -118.3269043 110.94433594 C-118.8151352 108.73809191 -119.32422985 106.5372947 -119.83398438 104.3359375 C-120.14711863 102.92736845 -120.45901244 101.51852293 -120.76953125 100.109375 C-121.05417236 98.84061523 -121.33881348 97.57185547 -121.63208008 96.26464844 C-122.00648789 92.94243129 -121.86931037 91.70035042 -120 89 C-118.68 89 -117.36 89 -116 89 C-116.103125 87.96875 -116.20625 86.9375 -116.3125 85.875 C-115.99271543 81.90967129 -115.28780838 80.1647894 -112.546875 77.29296875 C-108.69337977 74.07199167 -104.83929253 72.68854199 -99.875 73.0625 C-95.78958582 74.05090666 -93.90328857 75.01132059 -91 78 C-89.6875 80.25 -89.6875 80.25 -89 82 C-88.74951364 79.12549017 -88.74951364 79.12549017 -89 76 C-89.515625 75.505 -90.03125 75.01 -90.5625 74.5 C-91.036875 74.005 -91.51125 73.51 -92 73 C-91.86020208 69.71474893 -91.53004714 67.68464423 -89.5 65.0625 C-87.2259706 61.93570957 -86.93561111 59.86333334 -87 56 C-88.28581862 53.88192207 -89.77970768 52.07706522 -91.3671875 50.17578125 C-97.46756307 42.04681189 -98.18904683 32.2982216 -98.25 22.5 C-98.270625 21.67113281 -98.29125 20.84226562 -98.3125 19.98828125 C-98.34507915 14.86520947 -97.76055353 11.47638631 -95 7 C-94.608125 6.360625 -94.21625 5.72125 -93.8125 5.0625 C-91.26061314 3.56656633 -89.08885954 3.74994431 -86.234375 4.25 C-75.50038152 7.85301879 -66.88866409 19.82338617 -61 29 C-60.15566406 28.83757813 -59.31132813 28.67515625 -58.44140625 28.5078125 C-54.88806714 27.98348323 -51.52754767 27.86718706 -47.9375 27.875 C-46.75027344 27.87242188 -45.56304687 27.86984375 -44.33984375 27.8671875 C-41.42565555 27.98307335 -38.82914983 28.32613823 -36 29 C-35.53851563 28.32195313 -35.07703125 27.64390625 -34.6015625 26.9453125 C-28.72356211 18.55812617 -21.54205164 8.45295743 -12 4 C-7.71403589 4.14528692 -5.57719222 4.61520518 -2 7 C-1.34 4.69 -0.68 2.38 0 0 Z " fill="#096163" transform="translate(148,14)"/>
<path d="M0 0 C2.97 0 5.94 0 9 0 C10.36973113 5.51260643 10.30483321 11.1374528 10.4296875 16.78710938 C10.67554716 23.21531494 11.71256474 28.66830081 15.4375 34.09375 C20.01144359 38.21029923 23.66979348 38.58160329 29.7421875 38.30859375 C31.96497145 38.23664101 31.96497145 38.23664101 33 37 C39.38873239 36.52676056 39.38873239 36.52676056 41.9375 38.5 C42.288125 38.995 42.63875 39.49 43 40 C42.01 40.495 42.01 40.495 41 41 C40.79958877 42.93207289 40.79958877 42.93207289 40.8125 45.1875 C40.47221305 49.08533228 39.7517868 50.78399708 36.75 53.3125 C35.51276302 54.22587945 34.26325778 55.12296116 33 56 C31.6696875 57.11375 31.6696875 57.11375 30.3125 58.25 C28.26016472 59.80311859 26.34444011 60.95802662 24 62 C24.4021875 63.5778125 24.4021875 63.5778125 24.8125 65.1875 C25 69 25 69 22.6875 71.75 C21.800625 72.4925 20.91375 73.235 20 74 C19.34 74.99 18.68 75.98 18 77 C14.7421875 77.29296875 14.7421875 77.29296875 10.875 77.1875 C8.95300781 77.14689453 8.95300781 77.14689453 6.9921875 77.10546875 C6.00476563 77.07066406 5.01734375 77.03585938 4 77 C4.495 83.435 4.495 83.435 5 90 C5.33 87.03 5.66 84.06 6 81 C9.63 81 13.26 81 17 81 C17.33 81.99 17.66 82.98 18 84 C15.69 84 13.38 84 11 84 C11 84.86802246 11 85.73604492 11 86.63037109 C11 96.08691406 11 105.54345703 11 115 C15.29 115.33 19.58 115.66 24 116 C24 115.34 24 114.68 24 114 C20.7 113.67 17.4 113.34 14 113 C14 104.42 14 95.84 14 87 C17.3 87 20.6 87 24 87 C24.66 87.66 25.32 88.32 26 89 C29.2537327 89.32077211 29.2537327 89.32077211 32.9375 89.25 C34.80728516 89.25773437 34.80728516 89.25773437 36.71484375 89.265625 C40.14191449 89.25627355 40.14191449 89.25627355 43 87 C46.68380428 86.73344397 50.30136581 86.91297331 54 87 C54 92.61 54 98.22 54 104 C50.04 104 46.08 104 42 104 C42 103.34 42 102.68 42 102 C34.74 102 27.48 102 20 102 C20 103.32 20 104.64 20 106 C23.3 106 26.6 106 30 106 C29.67 108.64 29.34 111.28 29 114 C29.48500977 113.02208496 29.97001953 112.04416992 30.46972656 111.03662109 C33 108 33 108 36.85058594 107.31884766 C38.39550805 107.31979319 39.94064216 107.35344781 41.484375 107.4140625 C42.70776581 107.42679703 42.70776581 107.42679703 43.95587158 107.43978882 C46.55527098 107.47331881 49.15154221 107.54858891 51.75 107.625 C53.51427804 107.65510051 55.27860482 107.68247618 57.04296875 107.70703125 C61.36414683 107.76800742 65.67858324 107.88538482 70 108 C70 117.24 70 126.48 70 136 C29.08 136 -11.84 136 -54 136 C-54 126.76 -54 117.52 -54 108 C-48.67711117 107.83901008 -43.36269363 107.69980844 -38.03930664 107.61547852 C-36.230096 107.58032777 -34.4210835 107.53259535 -32.61254883 107.47192383 C-30.00812947 107.38675595 -27.40634139 107.34726217 -24.80078125 107.31640625 C-23.99538406 107.28027725 -23.18998688 107.24414825 -22.36018372 107.20692444 C-20.03733807 107.20530935 -18.21035471 107.27679704 -16 108 C-14.36116327 109.71090311 -13.26984958 111.36231051 -12.15666199 113.45005798 C-11.77496353 113.96153885 -11.39326508 114.47301971 -11 115 C-7.28841143 115.58560449 -7.28841143 115.58560449 -4 115 C-2.71394339 112.42788678 -2.78956059 110.43093034 -2.68359375 107.5546875 C-2.62075195 105.94013672 -2.62075195 105.94013672 -2.55664062 104.29296875 C-2.51732422 103.16503906 -2.47800781 102.03710938 -2.4375 100.875 C-2.37272461 99.17150391 -2.37272461 99.17150391 -2.30664062 97.43359375 C-2.2003396 94.62252232 -2.09830595 91.81136055 -2 89 C-1.67 89 -1.34 89 -1 89 C-1 87.02 -1 85.04 -1 83 C-7.93 82.505 -7.93 82.505 -15 82 C-17.33251232 71.06634852 -17.33251232 71.06634852 -17 67 C-16.34 66.34 -15.68 65.68 -15 65 C-15.01382865 62.94285168 -15.01382865 62.94285168 -16 61 C-16.65226562 60.72414062 -17.30453125 60.44828125 -17.9765625 60.1640625 C-20 59 -20 59 -20.828125 56.8359375 C-21.21875 54.55729167 -21.609375 52.27864583 -22 50 C-24.97 50 -27.94 50 -31 50 C-31.1953125 47.72135417 -31.390625 45.44270833 -31.5859375 43.1640625 C-31.82892588 40.79665809 -31.82892588 40.79665809 -34 39 C-30.54337669 36.69558446 -29.05142119 36.74139865 -25 37 C-24.34 37.33 -23.68 37.66 -23 38 C-18.10366692 38.53718762 -14.1322441 38.52418708 -9.625 36.4375 C-4.28364872 31.47767382 -2.01021861 25.80604785 -1.71875 18.59375 C-1.68136719 17.76746094 -1.64398438 16.94117187 -1.60546875 16.08984375 C-1.57066406 15.23519531 -1.53585938 14.38054688 -1.5 13.5 C-1.43084766 11.80192586 -1.35805906 10.10399504 -1.28125 8.40625 C-1.25095703 7.65666016 -1.22066406 6.90707031 -1.18945312 6.13476562 C-1 4 -1 4 0 0 Z " fill="#258A8A" transform="translate(95,46)"/>
<path d="M0 0 C3.47945186 2.19356748 5.49135525 4.15981337 7 8 C7.33 7.34 7.66 6.68 8 6 C8.66 6 9.32 6 10 6 C9.505 2.535 9.505 2.535 9 -1 C9.99 -1 10.98 -1 12 -1 C12 1.97 12 4.94 12 8 C16.455 7.505 16.455 7.505 21 7 C22.60355101 10.50776784 23.22036864 13.14354879 23 17 C23.804375 17.2475 24.60875 17.495 25.4375 17.75 C28 19 28 19 28.9375 21 C28.958125 21.66 28.97875 22.32 29 23 C28.34 23.66 27.68 24.32 27 25 C27.01747888 27.59269983 27.13768592 30.0525154 27.375 32.625 C27.43171875 33.33140625 27.4884375 34.0378125 27.546875 34.765625 C27.68840921 36.51121361 27.84297387 38.25573673 28 40 C29.49853516 39.98259766 29.49853516 39.98259766 31.02734375 39.96484375 C32.31769531 39.95582031 33.60804687 39.94679687 34.9375 39.9375 C36.22527344 39.92589844 37.51304688 39.91429687 38.83984375 39.90234375 C42 40 42 40 43 41 C43.04092937 43.33297433 43.04241723 45.66705225 43 48 C42.67 48 42.34 48 42 48 C41.96241577 49.02154175 41.96241577 49.02154175 41.92407227 50.0637207 C41.80809048 53.14683755 41.68537384 56.22965046 41.5625 59.3125 C41.52318359 60.38435547 41.48386719 61.45621094 41.44335938 62.56054688 C41.40146484 63.58857422 41.35957031 64.61660156 41.31640625 65.67578125 C41.27974854 66.62364502 41.24309082 67.57150879 41.20532227 68.5480957 C41 71 41 71 40 74 C34.23828125 74.68359375 34.23828125 74.68359375 32 74 C31.26937053 72.85896948 30.57762549 71.69276258 29.91015625 70.51367188 C28.41471103 68.35915303 27.58701158 67.20306109 25.0867157 66.33815002 C22.76780996 66.09504467 20.53052072 66.05639311 18.19921875 66.09765625 C17.36284378 66.08536484 16.52646881 66.07307343 15.66474915 66.06040955 C13.0047687 66.02872554 10.34756601 66.04494101 7.6875 66.0625 C5.87953157 66.04938822 4.07158295 66.03314697 2.26367188 66.01367188 C-2.15923308 65.96698678 -6.57516679 65.98513018 -11 66 C-11 75.57 -11 85.14 -11 95 C28.93 95 68.86 95 110 95 C110 95.33 110 95.66 110 96 C111.65 96.33 113.3 96.66 115 97 C115 97.33 115 97.66 115 98 C98.19776179 98.02332875 81.39552861 98.04097906 64.59327793 98.05181217 C56.79224164 98.05697518 48.99121539 98.06401797 41.19018555 98.07543945 C34.39323687 98.08538615 27.59629546 98.09185339 20.79933971 98.09408849 C17.19821869 98.09539563 13.59711848 98.09848164 9.9960041 98.10573006 C5.98243398 98.11374364 1.96890036 98.11399115 -2.04467773 98.11352539 C-3.24732773 98.11712067 -4.44997772 98.12071594 -5.68907166 98.12442017 C-7.31927246 98.12235817 -7.31927246 98.12235817 -8.98240662 98.12025452 C-9.93277518 98.12117631 -10.88314375 98.1220981 -11.86231136 98.12304783 C-14 98 -14 98 -15 97 C-15.13809764 94.52586164 -15.21308712 92.08158608 -15.23828125 89.60546875 C-15.246353 88.86170486 -15.25442474 88.11794098 -15.26274109 87.35163879 C-15.27659712 85.77375632 -15.28731246 84.19584369 -15.29516602 82.61791992 C-15.31235672 80.20758912 -15.35622313 77.79863785 -15.40039062 75.38867188 C-15.41051928 73.85678094 -15.41903484 72.32487832 -15.42578125 70.79296875 C-15.44328934 70.07304245 -15.46079742 69.35311615 -15.47883606 68.6113739 C-15.46340186 65.03884753 -15.26523058 63.32549138 -12.97338867 60.51293945 C-12.32217041 60.01366943 -11.67095215 59.51439941 -11 59 C-12.65 59 -14.3 59 -16 59 C-19.01400934 51.87088812 -20.67224732 44.47704543 -22.3269043 36.94433594 C-22.8151352 34.73809191 -23.32422985 32.5372947 -23.83398438 30.3359375 C-24.14711863 28.92736845 -24.45901244 27.51852293 -24.76953125 26.109375 C-25.05417236 24.84061523 -25.33881348 23.57185547 -25.63208008 22.26464844 C-26.00648789 18.94243129 -25.86931037 17.70035042 -24 15 C-22.68 15 -21.36 15 -20 15 C-20.103125 13.96875 -20.20625 12.9375 -20.3125 11.875 C-19.99271543 7.90967129 -19.28780838 6.1647894 -16.546875 3.29296875 C-11.17379247 -1.19816842 -6.474974 -1.56652597 0 0 Z " fill="#0D6566" transform="translate(52,88)"/>
<path d="M0 0 C2.97 0 5.94 0 9 0 C10.36973113 5.51260643 10.30483321 11.1374528 10.4296875 16.78710938 C10.67554716 23.21531494 11.71256474 28.66830081 15.4375 34.09375 C20.01144359 38.21029923 23.66979348 38.58160329 29.7421875 38.30859375 C31.96497145 38.23664101 31.96497145 38.23664101 33 37 C39.38873239 36.52676056 39.38873239 36.52676056 41.9375 38.5 C42.288125 38.995 42.63875 39.49 43 40 C42.01 40.495 42.01 40.495 41 41 C40.79958877 42.93207289 40.79958877 42.93207289 40.8125 45.1875 C40.47221305 49.08533228 39.7517868 50.78399708 36.75 53.3125 C35.51276302 54.22587945 34.26325778 55.12296116 33 56 C31.6696875 57.11375 31.6696875 57.11375 30.3125 58.25 C28.26016472 59.80311859 26.34444011 60.95802662 24 62 C24.268125 63.051875 24.53625 64.10375 24.8125 65.1875 C25 69 25 69 22.6875 71.75 C21.800625 72.4925 20.91375 73.235 20 74 C19.34 74.99 18.68 75.98 18 77 C14.7421875 77.51171875 14.7421875 77.51171875 10.875 77.6875 C9.59367187 77.75324219 8.31234375 77.81898437 6.9921875 77.88671875 C6.00476563 77.92410156 5.01734375 77.96148437 4 78 C3.505 83.94 3.505 83.94 3 90 C2.01 90 1.02 90 0 90 C-0.495 86.535 -0.495 86.535 -1 83 C-7.93 82.505 -7.93 82.505 -15 82 C-17.33251232 71.06634852 -17.33251232 71.06634852 -17 67 C-16.01 66.01 -16.01 66.01 -15 65 C-15.01382865 62.94285168 -15.01382865 62.94285168 -16 61 C-16.65226562 60.72414062 -17.30453125 60.44828125 -17.9765625 60.1640625 C-20 59 -20 59 -20.828125 56.8359375 C-21.21875 54.55729167 -21.609375 52.27864583 -22 50 C-24.97 50 -27.94 50 -31 50 C-31.1953125 47.72135417 -31.390625 45.44270833 -31.5859375 43.1640625 C-31.82892588 40.79665809 -31.82892588 40.79665809 -34 39 C-30.54337669 36.69558446 -29.05142119 36.74139865 -25 37 C-24.34 37.33 -23.68 37.66 -23 38 C-18.10366692 38.53718762 -14.1322441 38.52418708 -9.625 36.4375 C-4.28364872 31.47767382 -2.01021861 25.80604785 -1.71875 18.59375 C-1.68136719 17.76746094 -1.64398438 16.94117187 -1.60546875 16.08984375 C-1.57066406 15.23519531 -1.53585938 14.38054688 -1.5 13.5 C-1.43084766 11.80192586 -1.35805906 10.10399504 -1.28125 8.40625 C-1.25095703 7.65666016 -1.22066406 6.90707031 -1.18945312 6.13476562 C-1 4 -1 4 0 0 Z " fill="#7ACEC2" transform="translate(95,46)"/>
<path d="M0 0 C8.06368006 6.17643579 13.92559429 14.24825597 19 23 C19.99 21.515 19.99 21.515 21 20 C21 21.98 21 23.96 21 26 C22.11375 25.95875 23.2275 25.9175 24.375 25.875 C28 26 28 26 30 28 C30.2165625 29.918125 30.2165625 29.918125 30.4375 31.875 C31.22500078 36.10583751 32.82397996 37.98551494 36.01542664 40.81365967 C40.7936914 45.15117229 43.60575694 48.7952453 44.05097961 55.36019897 C44.0903611 59.17169606 43.92099889 62.94673164 43.6875 66.75 C43.6321867 68.33316074 43.58202065 69.91651004 43.53710938 71.5 C43.41722374 75.33808415 43.22831273 79.16690067 43 83 C39.93109813 84.53445094 37.29905734 83.54984289 34 83 C34 82.67 34 82.34 34 82 C-5.27 81.67 -44.54 81.34 -85 81 C-85 80.67 -85 80.34 -85 80 C-44.08 80 -3.16 80 39 80 C39 70.76 39 61.52 39 52 C26.79 52 14.58 52 2 52 C1.34 53.65 0.68 55.3 0 57 C-0.99 57.66 -1.98 58.32 -3 59 C-3.125 53.25 -3.125 53.25 -2 51 C-4.97 50.67 -7.94 50.34 -11 50 C-11 48.68 -11 47.36 -11 46 C-3.74 46 3.52 46 11 46 C11 46.66 11 47.32 11 48 C14.96 48 18.92 48 23 48 C23 42.39 23 36.78 23 31 C15.56879791 31.19397513 15.56879791 31.19397513 9 34 C5.71484375 34.265625 5.71484375 34.265625 1.9375 34.25 C0.68839844 34.25515625 -0.56070313 34.2603125 -1.84765625 34.265625 C-5 34 -5 34 -7 32 C-10.3 31.67 -13.6 31.34 -17 31 C-17 39.58 -17 48.16 -17 57 C-12.71 57 -8.42 57 -4 57 C-5.485 57.495 -5.485 57.495 -7 58 C-7 58.66 -7 59.32 -7 60 C-9.08268593 60.08126087 -11.16628658 60.13930839 -13.25 60.1875 C-14.99023438 60.23970703 -14.99023438 60.23970703 -16.765625 60.29296875 C-20.22268407 59.97982934 -21.51565563 59.34290892 -24 57 C-22.68 57 -21.36 57 -20 57 C-20 47.43 -20 37.86 -20 28 C-17.69 28 -15.38 28 -13 28 C-13.495 27.01 -13.495 27.01 -14 26 C-17.63 25.67 -21.26 25.34 -25 25 C-25 35.23 -25 45.46 -25 56 C-25.33 56 -25.66 56 -26 56 C-26.59108989 44.32440258 -27.14259889 32.69310859 -27 21 C-22.38 21 -17.76 21 -13 21 C-12.01 18.525 -12.01 18.525 -11 16 C-8.875 14.1875 -8.875 14.1875 -7 13 C-7.495 9.535 -7.495 9.535 -8 6 C-3.25 3 -3.25 3 -1 3 C-0.67 2.01 -0.34 1.02 0 0 Z " fill="#0D6667" transform="translate(126,102)"/>
<path d="M0 0 C2.4178943 1.9701361 2.98502564 2.95507691 4 6 C4.96176154 17.41500583 3.92935162 30.22992274 -3.0625 39.75 C-4.53535979 41.48461471 -5.97070616 42.97556628 -7.71875 44.43359375 C-9.21704559 45.92728876 -9.21704559 45.92728876 -8.99609375 48.05078125 C-7.73753662 53.14661748 -6.20776168 56.82990982 -3 61 C-3.495 61.99 -3.495 61.99 -4 63 C-4.99 62.34 -5.98 61.68 -7 61 C-10.58357241 60.74984127 -10.58357241 60.74984127 -14 61 C-14.33 61.33 -14.66 61.66 -15 62 C-19.6952148 62.72614921 -24.130557 62.99703627 -28.40234375 60.71875 C-33.89963749 56.21444973 -36.52841119 51.16628686 -37.32763672 44.10546875 C-37.51563413 40.90203272 -37.62034312 37.70817999 -37.6875 34.5 C-37.72166016 33.39140625 -37.75582031 32.2828125 -37.79101562 31.140625 C-37.87288667 28.42718457 -37.94223404 25.71404253 -38 23 C-37.32598145 23.12874512 -36.65196289 23.25749023 -35.95751953 23.39013672 C-33.25108823 23.80572004 -30.73847467 24.0850057 -28 24 C-25.38821977 22.11079313 -25.38821977 22.11079313 -23.875 19.125 C-22.91207031 17.6090625 -22.91207031 17.6090625 -21.9296875 16.0625 C-21.29289062 15.051875 -20.65609375 14.04125 -20 13 C-7.65646858 -2.87716982 -7.65646858 -2.87716982 0 0 Z " fill="#258A8A" transform="translate(142,23)"/>
<path d="M0 0 C3.99647049 0.43558262 5.98795344 2.6099161 8.7421875 5.3125 C9.2673999 5.81217285 9.7926123 6.3118457 10.33374023 6.82666016 C21.4967622 17.5716494 21.4967622 17.5716494 24.8671875 24.3125 C24.8671875 24.9725 24.8671875 25.6325 24.8671875 26.3125 C30.3121875 25.3225 30.3121875 25.3225 35.8671875 24.3125 C35.77971656 27.98024714 35.67275533 31.64571429 35.5546875 35.3125 C35.53212891 36.34246094 35.50957031 37.37242188 35.48632812 38.43359375 C35.16226856 47.68402136 33.46371987 54.5550766 26.8671875 61.3125 C23.7553902 63.26150255 21.38666599 63.55983472 17.7421875 63.5 C16.87335938 63.49355469 16.00453125 63.48710938 15.109375 63.48046875 C12.8671875 63.3125 12.8671875 63.3125 10.8671875 62.3125 C6.91155928 62.05452425 4.27059057 62.21809811 0.8671875 64.3125 C1.9196327 61.55995102 3.04376715 58.98053027 4.4296875 56.375 C6.51441231 52.03044672 6.51441231 52.03044672 6.8671875 47.3125 C5.29744904 45.19402775 3.54229211 43.35658329 1.71875 41.453125 C-4.34775227 34.43953166 -6.5250536 24.35545645 -6.5078125 15.3125 C-6.50910156 14.61060547 -6.51039062 13.90871094 -6.51171875 13.18554688 C-6.4136273 8.4102769 -5.8619987 0.85890091 0 0 Z " fill="#268B8A" transform="translate(59.1328125,21.6875)"/>
<path d="M0 0 C0.91644287 0.00523682 1.83288574 0.01047363 2.77709961 0.01586914 C3.76645508 0.0190918 4.75581055 0.02231445 5.77514648 0.02563477 C6.81606445 0.03401367 7.85698242 0.04239258 8.92944336 0.05102539 C10.49662109 0.05779297 10.49662109 0.05779297 12.09545898 0.06469727 C14.68600996 0.07652627 17.27644895 0.0930085 19.86694336 0.11352539 C19.86694336 0.77352539 19.86694336 1.43352539 19.86694336 2.11352539 C20.46039551 2.38801514 21.05384766 2.66250488 21.6652832 2.9453125 C25.48517719 4.97216909 27.90549135 7.21962766 29.86694336 11.11352539 C30.59451168 16.10351792 30.43507503 21.0277799 30.24194336 26.05102539 C30.21180417 27.41620091 30.1844353 28.78144056 30.15991211 30.14672852 C30.08944047 33.47064104 29.99094443 36.79125045 29.86694336 40.11352539 C28.54694336 40.11352539 27.22694336 40.11352539 25.86694336 40.11352539 C25.53694336 41.76352539 25.20694336 43.41352539 24.86694336 45.11352539 C20.18555082 45.13817827 15.50419577 45.15636278 10.82275391 45.16845703 C9.22899721 45.17349696 7.63524517 45.18032889 6.04150391 45.18896484 C3.75544083 45.20104538 1.46943869 45.20675694 -0.81665039 45.21118164 C-1.53332382 45.21634293 -2.24999725 45.22150421 -2.98838806 45.2268219 C-4.70369336 45.22701802 -6.4188693 45.17544546 -8.13305664 45.11352539 C-9.948711 43.29787103 -9.26167563 40.80082577 -9.27200317 38.38464355 C-9.26997894 37.58361206 -9.26795471 36.78258057 -9.26586914 35.95727539 C-9.26682587 35.13980835 -9.26778259 34.32234131 -9.26876831 33.48010254 C-9.26945009 31.74837162 -9.26759593 30.01663815 -9.26342773 28.28491211 C-9.25807943 25.62486057 -9.26337276 22.96497789 -9.26977539 20.30493164 C-9.26911461 18.62654585 -9.26783345 16.94816016 -9.26586914 15.26977539 C-9.26789337 14.4687439 -9.2699176 13.6677124 -9.27200317 12.84240723 C-9.24800743 7.22847618 -9.24800743 7.22847618 -8.13305664 6.11352539 C-6.46688549 6.07288707 -4.79917569 6.07080439 -3.13305664 6.11352539 C-3.15368164 5.30915039 -3.17430664 4.50477539 -3.19555664 3.67602539 C-3.10993448 0.16551671 -3.10993448 0.16551671 0 0 Z " fill="#096163" transform="translate(157.133056640625,67.886474609375)"/>
<path d="M0 0 C0.76196289 2.56030273 0.76196289 2.56030273 1.47265625 5.93359375 C1.73240234 7.13951172 1.99214844 8.34542969 2.25976562 9.58789062 C2.52466797 10.85826172 2.78957031 12.12863281 3.0625 13.4375 C3.5928571 15.93666473 4.12530269 18.43538746 4.66015625 20.93359375 C4.89355713 22.04790771 5.12695801 23.16222168 5.36743164 24.31030273 C5.87937151 26.9508845 5.87937151 26.9508845 7 29 C7.039992 30.99960012 7.04346799 33.00047242 7 35 C-11.5546875 38.7109375 -11.5546875 38.7109375 -14.85058594 39.36621094 C-16.86111148 39.77080972 -18.86982433 40.18459769 -20.87597656 40.61035156 C-21.74448242 40.79307617 -22.61298828 40.97580078 -23.5078125 41.1640625 C-24.25949707 41.32600098 -25.01118164 41.48793945 -25.78564453 41.65478516 C-28.22033407 42.03434977 -30.53975715 42.05791991 -33 42 C-34.00244655 37.65961971 -34.9991923 33.31798133 -35.99072266 28.97509766 C-36.32868356 27.49850337 -36.66818775 26.02226142 -37.00927734 24.54638672 C-37.49985381 22.42246236 -37.98482932 20.29732438 -38.46875 18.171875 C-38.76201172 16.8940918 -39.05527344 15.61630859 -39.35742188 14.29980469 C-40 11 -40 11 -40 7 C-39.31292969 7.15082031 -38.62585937 7.30164063 -37.91796875 7.45703125 C-34.71601339 8.05284356 -31.55684712 8.40264854 -28.3125 8.6875 C-27.17425781 8.79449219 -26.03601563 8.90148437 -24.86328125 9.01171875 C-21.86604318 9.33551442 -21.86604318 9.33551442 -20 7 C-19.195625 6.71125 -18.39125 6.4225 -17.5625 6.125 C-14.89495277 5.22566869 -14.89495277 5.22566869 -13.65625 3.01171875 C-11.54750252 0.45038632 -10.16574228 0.23425679 -6.9375 -0.3125 C-6.05964844 -0.47363281 -5.18179688 -0.63476562 -4.27734375 -0.80078125 C-2 -1 -2 -1 0 0 Z " fill="#79CDC1" transform="translate(71,100)"/>
<path d="M0 0 C5.61 0 11.22 0 17 0 C17 3.96 17 7.92 17 12 C21.29 12 25.58 12 30 12 C30 20.91 30 29.82 30 39 C20.1 39 10.2 39 0 39 C0 26.13 0 13.26 0 0 Z " fill="#61C0B6" transform="translate(151,18)"/>
<path d="M0 0 C1.084021 0.00523682 2.16804199 0.01047363 3.28491211 0.01586914 C5.03964844 0.02070313 5.03964844 0.02070313 6.82983398 0.02563477 C8.67738281 0.03820312 8.67738281 0.03820312 10.56225586 0.05102539 C12.41560547 0.05779297 12.41560547 0.05779297 14.30639648 0.06469727 C17.37089703 0.07652931 20.43530307 0.09301366 23.49975586 0.11352539 C23.52440874 4.79491793 23.54259325 9.47627298 23.5546875 14.15771484 C23.55972743 15.75147154 23.56655936 17.34522358 23.57519531 18.93896484 C23.58727584 21.22502792 23.59298741 23.51103006 23.59741211 25.79711914 C23.60257339 26.51379257 23.60773468 27.230466 23.61305237 27.96885681 C23.61324849 29.68416211 23.56167593 31.39933805 23.49975586 33.11352539 C22.49975586 34.11352539 22.49975586 34.11352539 20.09130859 34.22705078 C19.04918213 34.22181396 18.00705566 34.21657715 16.93334961 34.21118164 C15.80864258 34.20795898 14.68393555 34.20473633 13.52514648 34.20141602 C12.34114258 34.19303711 11.15713867 34.1846582 9.93725586 34.17602539 C8.74938477 34.17151367 7.56151367 34.16700195 6.33764648 34.16235352 C3.3916336 34.15052214 0.44571905 34.13403826 -2.50024414 34.11352539 C-3.98149458 31.15102452 -3.63015099 28.47439644 -3.63305664 25.17211914 C-3.63401337 24.48924332 -3.63497009 23.80636749 -3.63595581 23.10279846 C-3.63663637 21.65951444 -3.63479074 20.21622736 -3.63061523 18.77294922 C-3.62525696 16.55632711 -3.63056857 14.33990687 -3.63696289 12.12329102 C-3.63630225 10.72289994 -3.63502137 9.32250899 -3.63305664 7.92211914 C-3.63192871 6.64135498 -3.63080078 5.36059082 -3.62963867 4.04101562 C-3.4579664 0.15701146 -3.4579664 0.15701146 0 0 Z " fill="#62C1B6" transform="translate(18.500244140625,27.886474609375)"/>
<path d="M0 0 C3.3 0 6.6 0 10 0 C10.66 0.66 11.32 1.32 12 2 C15.2537327 2.32077211 15.2537327 2.32077211 18.9375 2.25 C20.80728516 2.25773438 20.80728516 2.25773438 22.71484375 2.265625 C26.14191449 2.25627355 26.14191449 2.25627355 29 0 C32.68380428 -0.26655603 36.30136581 -0.08702669 40 0 C40 5.61 40 11.22 40 17 C36.04 17 32.08 17 28 17 C28 16.34 28 15.68 28 15 C20.74 15 13.48 15 6 15 C6 16.32 6 17.64 6 19 C9.3 19 12.6 19 16 19 C15.01 20.98 14.02 22.96 13 25 C8.71 25 4.42 25 0 25 C0 16.75 0 8.5 0 0 Z " fill="#77CBC0" transform="translate(109,133)"/>
<path d="M0 0 C5.28 0 10.56 0 16 0 C16.33 3.3 16.66 6.6 17 10 C20.3 10.33 23.6 10.66 27 11 C26.67 11.99 26.34 12.98 26 14 C19.07 13.67 12.14 13.34 5 13 C5 14.65 5 16.3 5 18 C5.59167969 17.98839844 6.18335938 17.97679688 6.79296875 17.96484375 C11.00231785 17.91677614 14.8922333 17.93993117 19 19 C19 19.66 19 20.32 19 21 C14.38 21.33 9.76 21.66 5 22 C5 22.66 5 23.32 5 24 C7.75105422 24.10812003 10.49785087 24.18734945 13.25 24.25 C14.41595703 24.30027344 14.41595703 24.30027344 15.60546875 24.3515625 C16.35957031 24.36445312 17.11367187 24.37734375 17.890625 24.390625 C18.92751465 24.4220459 18.92751465 24.4220459 19.98535156 24.45410156 C22.67634969 24.03607702 22.67634969 24.03607702 26 20 C26.33 23.96 26.66 27.92 27 32 C18.09 32 9.18 32 0 32 C0 21.44 0 10.88 0 0 Z " fill="#60BFB5" transform="translate(152,78)"/>
<path d="M0 0 C2.97 0 5.94 0 9 0 C9.84941019 3.39764076 10.11761783 5.7697327 10.09765625 9.203125 C10.09443359 10.1828125 10.09121094 11.1625 10.08789062 12.171875 C10.07532227 13.69554687 10.07532227 13.69554687 10.0625 15.25 C10.05798828 16.28125 10.05347656 17.3125 10.04882812 18.375 C10.03706088 20.91672573 10.02062011 23.45833319 10 26 C7.3125 26.4375 7.3125 26.4375 4 26 C2.9387207 24.47436523 2.9387207 24.47436523 1.92578125 22.55859375 C0.20688572 19.8285832 -0.54527463 19.11171116 -3.73291016 18.32861328 C-7.10817454 18.08682924 -10.42883266 18.0302746 -13.8125 18.0625 C-14.98232422 18.04638672 -16.15214844 18.03027344 -17.35742188 18.01367188 C-20.23947132 17.97838147 -23.11794738 17.97491106 -26 18 C-26 15.69 -26 13.38 -26 11 C-17.79395891 8.27752519 -9.47926336 6.59410151 -1 5 C-0.67 3.35 -0.34 1.7 0 0 Z " fill="#248989" transform="translate(82,132)"/>
<path d="M0 0 C3.58238859 2.10270635 4.75144507 3.38453066 6.3125 7.25 C6.539375 8.1575 6.76625 9.065 7 10 C9.475 10.495 9.475 10.495 12 11 C10 13 10 13 7 14 C6.38125 14.804375 5.7625 15.60875 5.125 16.4375 C2.83596297 19.19780936 1.34619327 19.91474813 -2 21 C-2.33 21.33 -2.66 21.66 -3 22 C-5.08496606 21.98822053 -7.16970153 21.88993039 -9.25 21.75 C-10.95929687 21.64945313 -10.95929687 21.64945313 -12.703125 21.546875 C-16.19105178 20.96830895 -18.20569134 20.14162343 -21 18 C-21.33 17.01 -21.66 16.02 -22 15 C-21.34 15 -20.68 15 -20 15 C-20.1546875 13.453125 -20.1546875 13.453125 -20.3125 11.875 C-19.99271543 7.90967129 -19.28780838 6.1647894 -16.546875 3.29296875 C-11.17379247 -1.19816842 -6.474974 -1.56652597 0 0 Z " fill="#0C6465" transform="translate(52,88)"/>
<path d="M0 0 C0.495 1.98 0.495 1.98 1 4 C-0.12148437 4.03867188 -0.12148437 4.03867188 -1.265625 4.078125 C-7.2579406 4.32766957 -7.2579406 4.32766957 -12.625 6.6875 C-14.27625471 9.4646102 -14.70914301 11.80057306 -15 15 C-14.34 15 -13.68 15 -13 15 C-12.34 13.35 -11.68 11.7 -11 10 C-10.01 10 -9.02 10 -8 10 C-8 12.64 -8 15.28 -8 18 C-7.01 18 -6.02 18 -5 18 C-4.01 16.02 -3.02 14.04 -2 12 C-1.01 12.33 -0.02 12.66 1 13 C0.67 14.65 0.34 16.3 0 18 C1.65 18 3.3 18 5 18 C4.67 19.32 4.34 20.64 4 22 C1.70858714 22.05384521 -0.58318188 22.09272087 -2.875 22.125 C-4.15117188 22.14820313 -5.42734375 22.17140625 -6.7421875 22.1953125 C-10 22 -10 22 -12 20 C-15.3 19.67 -18.6 19.34 -22 19 C-22 27.58 -22 36.16 -22 45 C-17.71 45 -13.42 45 -9 45 C-10.485 45.495 -10.485 45.495 -12 46 C-12 46.66 -12 47.32 -12 48 C-14.08268593 48.08126087 -16.16628658 48.13930839 -18.25 48.1875 C-19.99023438 48.23970703 -19.99023438 48.23970703 -21.765625 48.29296875 C-25.22268407 47.97982934 -26.51565563 47.34290892 -29 45 C-27.68 45 -26.36 45 -25 45 C-25 35.43 -25 25.86 -25 16 C-22.69 16 -20.38 16 -18 16 C-18.33 15.34 -18.66 14.68 -19 14 C-22.63 13.67 -26.26 13.34 -30 13 C-30 23.23 -30 33.46 -30 44 C-30.33 44 -30.66 44 -31 44 C-31.59108989 32.32440258 -32.14259889 20.69310859 -32 9 C-27.38 9 -22.76 9 -18 9 C-17.34 7.35 -16.68 5.7 -16 4 C-10.98576644 -0.63816604 -6.45138597 -0.45899189 0 0 Z " fill="#086062" transform="translate(131,114)"/>
<path d="M0 0 C0.33 0.66 0.66 1.32 1 2 C1.66 2 2.32 2 3 2 C3.33 11.24 3.66 20.48 4 30 C43.93 30.33 83.86 30.66 125 31 C125 31.33 125 31.66 125 32 C126.65 32.33 128.3 32.66 130 33 C130 33.33 130 33.66 130 34 C113.19776179 34.02332875 96.39552861 34.04097906 79.59327793 34.05181217 C71.79224164 34.05697518 63.99121539 34.06401797 56.19018555 34.07543945 C49.39323687 34.08538615 42.59629546 34.09185339 35.79933971 34.09408849 C32.19821869 34.09539563 28.59711848 34.09848164 24.9960041 34.10573006 C20.98243398 34.11374364 16.96890036 34.11399115 12.95532227 34.11352539 C11.15134727 34.1189183 11.15134727 34.1189183 9.31092834 34.12442017 C8.22412781 34.1230455 7.13732727 34.12167084 6.01759338 34.12025452 C5.06722482 34.12117631 4.11685625 34.1220981 3.13768864 34.12304783 C1 34 1 34 0 33 C-0.08843793 30.55169574 -0.11528752 28.13179401 -0.09765625 25.68359375 C-0.0962413 24.95253922 -0.09482635 24.22148468 -0.09336853 23.46827698 C-0.08775408 21.12464368 -0.07519922 18.78110461 -0.0625 16.4375 C-0.05748686 14.85221492 -0.05292363 13.26692834 -0.04882812 11.68164062 C-0.03777997 7.7877239 -0.02050572 3.89387795 0 0 Z " fill="#035B5D" transform="translate(37,152)"/>
<path d="M0 0 C1.084021 0.00523682 2.16804199 0.01047363 3.28491211 0.01586914 C5.03964844 0.02070313 5.03964844 0.02070313 6.82983398 0.02563477 C8.67738281 0.03820312 8.67738281 0.03820312 10.56225586 0.05102539 C12.41560547 0.05779297 12.41560547 0.05779297 14.30639648 0.06469727 C17.37089703 0.07652931 20.43530307 0.09301366 23.49975586 0.11352539 C23.52440874 4.79491793 23.54259325 9.47627298 23.5546875 14.15771484 C23.55972743 15.75147154 23.56655936 17.34522358 23.57519531 18.93896484 C23.58727584 21.22502792 23.59298741 23.51103006 23.59741211 25.79711914 C23.60257339 26.51379257 23.60773468 27.230466 23.61305237 27.96885681 C23.61324849 29.68416211 23.56167593 31.39933805 23.49975586 33.11352539 C22.49975586 34.11352539 22.49975586 34.11352539 20.09130859 34.22705078 C19.04918213 34.22181396 18.00705566 34.21657715 16.93334961 34.21118164 C15.80864258 34.20795898 14.68393555 34.20473633 13.52514648 34.20141602 C12.34114258 34.19303711 11.15713867 34.1846582 9.93725586 34.17602539 C8.74938477 34.17151367 7.56151367 34.16700195 6.33764648 34.16235352 C3.3916336 34.15052214 0.44571905 34.13403826 -2.50024414 34.11352539 C-3.98149458 31.15102452 -3.63015099 28.47439644 -3.63305664 25.17211914 C-3.63401337 24.48924332 -3.63497009 23.80636749 -3.63595581 23.10279846 C-3.63663637 21.65951444 -3.63479074 20.21622736 -3.63061523 18.77294922 C-3.62525696 16.55632711 -3.63056857 14.33990687 -3.63696289 12.12329102 C-3.63630225 10.72289994 -3.63502137 9.32250899 -3.63305664 7.92211914 C-3.63192871 6.64135498 -3.63080078 5.36059082 -3.62963867 4.04101562 C-3.4579664 0.15701146 -3.4579664 0.15701146 0 0 Z M0.49975586 4.11352539 C0.49975586 12.69352539 0.49975586 21.27352539 0.49975586 30.11352539 C6.76975586 30.11352539 13.03975586 30.11352539 19.49975586 30.11352539 C19.49975586 21.53352539 19.49975586 12.95352539 19.49975586 4.11352539 C13.22975586 4.11352539 6.95975586 4.11352539 0.49975586 4.11352539 Z " fill="#0E6767" transform="translate(18.500244140625,27.886474609375)"/>
<path d="M0 0 C3.96 0 7.92 0 12 0 C12 8.91 12 17.82 12 27 C2.1 27 -7.8 27 -18 27 C-18 24.36 -18 21.72 -18 19 C-16.68 19.33 -15.36 19.66 -14 20 C-13.34 19.01 -12.68 18.02 -12 17 C-10.0546875 16.48828125 -10.0546875 16.48828125 -7.875 16.3125 C-6.59625 16.209375 -5.3175 16.10625 -4 16 C-5.49743119 14.50256881 -6.98824239 14.66797307 -9.0625 14.4375 C-10.361875 14.293125 -11.66125 14.14875 -13 14 C-12.67 12.68 -12.34 11.36 -12 10 C-8.89591193 9.94192957 -5.7919636 9.90638086 -2.6875 9.875 C-1.80642578 9.85824219 -0.92535156 9.84148438 -0.01757812 9.82421875 C0.82998047 9.81777344 1.67753906 9.81132813 2.55078125 9.8046875 C3.72120972 9.78897705 3.72120972 9.78897705 4.9152832 9.77294922 C7 10 7 10 10 12 C10.2578125 15.00390625 10.2578125 15.00390625 10.125 18.5625 C10.05451544 20.70758012 10.00584008 22.85377012 10 25 C10.33 25.33 10.66 25.66 11 26 C11 17.75 11 9.5 11 1 C7.37 1 3.74 1 0 1 C0 0.67 0 0.34 0 0 Z " fill="#56B4AB" transform="translate(169,30)"/>
<path d="M0 0 C0.33 0 0.66 0 1 0 C1.33 3.96 1.66 7.92 2 12 C2.33 9.03 2.66 6.06 3 3 C6.63 3 10.26 3 14 3 C14.33 3.99 14.66 4.98 15 6 C12.69 6 10.38 6 8 6 C8 6.86278564 8 7.72557129 8 8.61450195 C8 18.40966797 8 28.20483398 8 38 C3.38 38 -1.24 38 -6 38 C-6 35.14345704 -5.90204538 32.31082218 -5.78125 29.45703125 C-5.73613281 28.38388672 -5.69101563 27.31074219 -5.64453125 26.20507812 C-5.59683594 25.08552734 -5.54914063 23.96597656 -5.5 22.8125 C-5.45230469 21.68134766 -5.40460938 20.55019531 -5.35546875 19.38476562 C-5.23753854 16.58981962 -5.11902619 13.79489952 -5 11 C-3.35 11.33 -1.7 11.66 0 12 C0 8.04 0 4.08 0 0 Z " fill="#0B6364" transform="translate(98,124)"/>
<path d="M0 0 C1.875 0.6875 1.875 0.6875 2.875 1.6875 C3.81957677 10.66872178 2.89049725 21.06807892 -2.50390625 28.6171875 C-3.875 30 -3.875 30 -6.125 31.6875 C-10.09437213 27.34599923 -10.09437213 27.34599923 -10.25 24 C-10.20875 23.236875 -10.1675 22.47375 -10.125 21.6875 C-10.785 21.0275 -11.445 20.3675 -12.125 19.6875 C-11.465 19.23375 -10.805 18.78 -10.125 18.3125 C-9.465 17.77625 -8.805 17.24 -8.125 16.6875 C-8.125 16.0275 -8.125 15.3675 -8.125 14.6875 C-10.88776177 15.21018466 -13.4510876 15.79619587 -16.125 16.6875 C-14.71945027 12.45565568 -12.69719402 9.76667939 -9.6875 6.5 C-8.90503906 5.64019531 -8.12257812 4.78039063 -7.31640625 3.89453125 C-3.00994208 -0.44263854 -3.00994208 -0.44263854 0 0 Z " fill="#7ACEC2" transform="translate(137.125,31.3125)"/>
<path d="M0 0 C5.11480201 0.47951269 8.54673176 4.53257902 12 8 C16 12.91111111 16 12.91111111 16 16 C13.69 15.67 11.38 15.34 9 15 C8.7715451 17.24362573 8.7715451 17.24362573 11 19.125 C11.66 19.74375 12.32 20.3625 13 21 C12.34 21.33 11.68 21.66 11 22 C10.09274566 24.11327425 10.09274566 24.11327425 9.375 26.5625 C9.11460938 27.38878906 8.85421875 28.21507813 8.5859375 29.06640625 C8.39257812 29.70449219 8.19921875 30.34257813 8 31 C7.01 31 6.02 31 5 31 C-1.42865158 23.56687161 -2.33777466 13.91623706 -2.30078125 4.43359375 C-2 2 -2 2 0 0 Z " fill="#7ACEC2" transform="translate(61,31)"/>
<path d="M0 0 C6.6 0.33 13.2 0.66 20 1 C20 1.33 20 1.66 20 2 C14.72 2 9.44 2 4 2 C4 12.89 4 23.78 4 35 C8.57875 34.855625 13.1575 34.71125 17.875 34.5625 C20.0403833 34.49784546 20.0403833 34.49784546 22.24951172 34.43188477 C23.94744873 34.3747229 23.94744873 34.3747229 25.6796875 34.31640625 C27.42354736 34.26141968 27.42354736 34.26141968 29.20263672 34.20532227 C31.9535501 34.18178341 31.9535501 34.18178341 34 33 C34 34.65 34 36.3 34 38 C29.31860746 38.02465288 24.63725241 38.04283739 19.95581055 38.05493164 C18.36205386 38.05997157 16.76830181 38.0668035 15.17456055 38.07543945 C12.88849747 38.08751999 10.60249533 38.09323155 8.31640625 38.09765625 C7.59973282 38.10281754 6.88305939 38.10797882 6.14466858 38.11329651 C4.42936328 38.11349263 2.71418734 38.06192007 1 38 C0 37 0 37 -0.11352539 33.48999023 C-0.11336626 31.92951578 -0.10767142 30.36903607 -0.09765625 28.80859375 C-0.0962413 27.98875504 -0.09482635 27.16891632 -0.09336853 26.32423401 C-0.08775289 23.69528618 -0.07519779 21.06642227 -0.0625 18.4375 C-0.05748701 16.65950643 -0.05292376 14.88151154 -0.04882812 13.10351562 C-0.03862752 8.73561842 -0.01905532 4.3679036 0 0 Z " fill="#086062" transform="translate(148,75)"/>
<path d="M0 0 C3.96 0 7.92 0 12 0 C12 8.25 12 16.5 12 25 C2.76 25 -6.48 25 -16 25 C-16 24.67 -16 24.34 -16 24 C-7.09 24 1.82 24 11 24 C11.37996752 12.94933935 11.37996752 12.94933935 8 10 C5.96532566 9.72313935 5.96532566 9.72313935 3.6484375 9.8046875 C2.79765625 9.81113281 1.946875 9.81757812 1.0703125 9.82421875 C0.18085938 9.84097656 -0.70859375 9.85773437 -1.625 9.875 C-2.97078125 9.88853516 -2.97078125 9.88853516 -4.34375 9.90234375 C-6.56276586 9.9259503 -8.78125077 9.9588769 -11 10 C-11.33 10.99 -11.66 11.98 -12 13 C-10.783125 12.95875 -9.56625 12.9175 -8.3125 12.875 C-4.78105873 12.86245492 -2.19996434 13.40001783 1 15 C1 15.33 1 15.66 1 16 C0.15695313 16.02578125 -0.68609375 16.0515625 -1.5546875 16.078125 C-2.65039062 16.13484375 -3.74609375 16.1915625 -4.875 16.25 C-5.96554688 16.29640625 -7.05609375 16.3428125 -8.1796875 16.390625 C-11.1332065 16.68846128 -11.1332065 16.68846128 -12.3828125 19.046875 C-12.58648437 19.69140625 -12.79015625 20.3359375 -13 21 C-13 20.34 -13 19.68 -13 19 C-13.66 19 -14.32 19 -15 19 C-15.33 20.32 -15.66 21.64 -16 23 C-16.81564858 19.41114625 -17.16216156 16.05414195 -17.1875 12.375 C-17.20167969 11.43398438 -17.21585938 10.49296875 -17.23046875 9.5234375 C-17 7 -17 7 -15 4 C-14.34 4.33 -13.68 4.66 -13 5 C-11.40737934 5.15175549 -9.80935144 5.24900325 -8.2109375 5.31640625 C-7.26992187 5.35830078 -6.32890625 5.40019531 -5.359375 5.44335938 C-4.37453125 5.48267578 -3.3896875 5.52199219 -2.375 5.5625 C-1.38242188 5.60568359 -0.38984375 5.64886719 0.6328125 5.69335938 C3.08839838 5.79961069 5.54408703 5.90164964 8 6 C7.67 4.68 7.34 3.36 7 2 C4.69 1.67 2.38 1.34 0 1 C0 0.67 0 0.34 0 0 Z " fill="#65C4B9" transform="translate(168,31)"/>
<path d="M0 0 C1.97265625 0.265625 1.97265625 0.265625 4.97265625 2.265625 C5.41015625 4.640625 5.41015625 4.640625 4.97265625 7.265625 C2.97265625 9.578125 2.97265625 9.578125 0.97265625 11.265625 C1.63265625 11.925625 2.29265625 12.585625 2.97265625 13.265625 C6.34205058 12.92868557 8.40176208 11.37743092 10.97265625 9.265625 C11.30265625 10.915625 11.63265625 12.565625 11.97265625 14.265625 C10.11551757 16.12276368 8.68101171 17.19293661 6.03125 17.46484375 C4.0106581 17.45368026 1.99099192 17.36173622 -0.02734375 17.265625 C-2.34134476 17.265625 -4.65549283 17.36899954 -6.96484375 17.515625 C-10.13565764 17.52146444 -10.84223857 17.39982625 -13.52734375 15.453125 C-15.02734375 13.265625 -15.02734375 13.265625 -15.02734375 10.265625 C-11.15234375 11.140625 -11.15234375 11.140625 -10.02734375 12.265625 C-8.3611726 12.30626332 -6.6934628 12.308346 -5.02734375 12.265625 C-5.02734375 11.605625 -5.02734375 10.945625 -5.02734375 10.265625 C-5.52234375 9.8325 -6.01734375 9.399375 -6.52734375 8.953125 C-8.02734375 7.265625 -8.02734375 7.265625 -8.33984375 4.703125 C-7.67558734 -0.478075 -4.51429333 0.03375173 0 0 Z " fill="#096062" transform="translate(101.02734375,79.734375)"/>
<path d="M0 0 C4.62 0 9.24 0 14 0 C14 2.31 14 4.62 14 7 C13.67 7 13.34 7 13 7 C12.96241577 8.02154175 12.96241577 8.02154175 12.92407227 9.0637207 C12.80809048 12.14683755 12.68537384 15.22965046 12.5625 18.3125 C12.52318359 19.38435547 12.48386719 20.45621094 12.44335938 21.56054688 C12.38051758 23.10258789 12.38051758 23.10258789 12.31640625 24.67578125 C12.27974854 25.62364502 12.24309082 26.57150879 12.20532227 27.5480957 C12 30 12 30 11 33 C5.23828125 33.68359375 5.23828125 33.68359375 3 33 C2.30336183 31.86155643 1.64123656 30.70179439 1 29.53125 C-0.73568098 26.89142212 -1.53708144 26.11717132 -4.64575195 25.33032227 C-7.88420767 25.0866775 -11.06516196 25.03023539 -14.3125 25.0625 C-15.99569336 25.03833008 -15.99569336 25.03833008 -17.71289062 25.01367188 C-20.47650211 24.97839173 -23.23638557 24.97490223 -26 25 C-25.34 24.67 -24.68 24.34 -24 24 C-23.67 23.01 -23.34 22.02 -23 21 C-19.27164299 20.79617897 -15.54471871 20.67220529 -11.8125 20.5625 C-10.75740234 20.50384766 -9.70230469 20.44519531 -8.61523438 20.38476562 C-0.83210703 20.21289846 -0.83210703 20.21289846 1.64306641 22.55419922 C2.86328125 24.46484375 2.86328125 24.46484375 3.90356445 26.39038086 C5.0106893 28.38580984 5.0106893 28.38580984 8.3125 28.9375 C9.199375 28.958125 10.08625 28.97875 11 29 C10.96970703 28.34926514 10.93941406 27.69853027 10.90820312 27.02807617 C10.77142283 24.08125002 10.63569934 21.13437612 10.5 18.1875 C10.45230469 17.16333984 10.40460938 16.13917969 10.35546875 15.08398438 C10.31035156 14.10107422 10.26523438 13.11816406 10.21875 12.10546875 C10.17685547 11.19949951 10.13496094 10.29353027 10.09179688 9.36010742 C10.02234503 7.57449311 10 5.78696447 10 4 C7.525 3.505 7.525 3.505 5 3 C5 2.67 5 2.34 5 2 C2.525 1.505 2.525 1.505 0 1 C0 0.67 0 0.34 0 0 Z " fill="#075F60" transform="translate(81,129)"/>
<path d="M0 0 C7.26 0 14.52 0 22 0 C22 4.95 22 9.9 22 15 C21.67 15 21.34 15 21 15 C20.67 13.02 20.34 11.04 20 9 C19.5877417 9.48895752 19.1754834 9.97791504 18.75073242 10.48168945 C16.62846375 12.32221224 15.75064629 12.35527774 12.98828125 12.29296875 C12.23095703 12.28330078 11.47363281 12.27363281 10.69335938 12.26367188 C9.51483398 12.2259668 9.51483398 12.2259668 8.3125 12.1875 C7.11657227 12.16719727 7.11657227 12.16719727 5.89648438 12.14648438 C3.93070033 12.11117089 1.96526418 12.05736447 0 12 C0 10.68 0 9.36 0 8 C4.62 8 9.24 8 14 8 C14 7.34 14 6.68 14 6 C12.35 6.33 10.7 6.66 9 7 C9 6.34 9 5.68 9 5 C6.03 5 3.06 5 0 5 C-0.33 4.01 -0.66 3.02 -1 2 C-0.67 1.34 -0.34 0.68 0 0 Z " fill="#55B1A9" transform="translate(157,91)"/>
<path d="M0 0 C4.51315789 2.02631579 4.51315789 2.02631579 6 5 C6.25860135 9.05142119 6.30441554 10.54337669 4 14 C2.68 14 1.36 14 0 14 C0 12.35 0 10.7 0 9 C-0.66 9 -1.32 9 -2 9 C-2.99 10.98 -3.98 12.96 -5 15 C-6.32 14.67 -7.64 14.34 -9 14 C-8.67 11.36 -8.34 8.72 -8 6 C-11.11332248 6.66868314 -11.11332248 6.66868314 -12.1875 9.0625 C-12.455625 9.701875 -12.72375 10.34125 -13 11 C-13.66 11 -14.32 11 -15 11 C-15.44823695 7.14516221 -15.27280781 5.41830531 -13.125 2.125 C-8.75327353 -0.847774 -5.14297175 -0.79382487 0 0 Z " fill="#7BCEC2" transform="translate(131,118)"/>
<path d="M0 0 C3 2.125 3 2.125 5 5 C5.3125 8.3125 5.3125 8.3125 5 11 C4.01 11.33 3.02 11.66 2 12 C1.67 10.02 1.34 8.04 1 6 C0.01 6 -0.98 6 -2 6 C-1.67 8.97 -1.34 11.94 -1 15 C-3.375 14.8125 -3.375 14.8125 -6 14 C-7.1875 11.5 -7.1875 11.5 -8 9 C-8.66 8.67 -9.32 8.34 -10 8 C-10 9.98 -10 11.96 -10 14 C-11.32 13.67 -12.64 13.34 -14 13 C-14.29779161 10.0717158 -14.49631943 7.85647674 -14 5 C-9.76147766 -0.08622681 -6.49629303 -1.03115762 0 0 Z " fill="#79CDC1" transform="translate(50,91)"/>
<path d="M0 0 C6.78968947 5.20061321 14.19915883 12.19827524 16.79296875 20.5546875 C17.0625 22.75 17.0625 22.75 17 26 C16.34 26 15.68 26 15 26 C14.86464844 25.39671875 14.72929687 24.7934375 14.58984375 24.171875 C13.40178989 19.76113613 12.5500798 17.46985983 9 14.4375 C4.26398906 12.18662168 -0.88594416 12.66707774 -6 13 C-8 9.265625 -8 9.265625 -8 6.875 C-6.46409376 3.9951758 -4.0070859 3.93971434 -1 3 C-0.67 2.01 -0.34 1.02 0 0 Z " fill="#268A89" transform="translate(126,102)"/>
<path d="M0 0 C3.79160297 -0.05786668 7.58309311 -0.09355054 11.375 -0.125 C12.45523438 -0.14175781 13.53546875 -0.15851562 14.6484375 -0.17578125 C15.6796875 -0.18222656 16.7109375 -0.18867188 17.7734375 -0.1953125 C19.20308838 -0.21102295 19.20308838 -0.21102295 20.66162109 -0.22705078 C23 0 23 0 25 2 C24.95875 2.78375 24.9175 3.5675 24.875 4.375 C24.72795095 7.17018345 24.72795095 7.17018345 27 9.1875 C27.66 9.785625 28.32 10.38375 29 11 C29 11.66 29 12.32 29 13 C27.329375 13.4640625 27.329375 13.4640625 25.625 13.9375 C22.2054845 14.82326483 22.2054845 14.82326483 20 16 C20 12.04 20 8.08 20 4 C14.39 4 8.78 4 3 4 C3 5.32 3 6.64 3 8 C2.01 8.33 1.02 8.66 0 9 C0 6.03 0 3.06 0 0 Z " fill="#086061" transform="translate(148,14)"/>
<path d="M0 0 C1.08839774 0.88967344 2.17044608 1.78711574 3.25 2.6875 C3.85328125 3.18636719 4.4565625 3.68523438 5.078125 4.19921875 C10.85242717 9.60969294 10.85242717 9.60969294 11.36230469 14.41333008 C11.29946289 15.68587646 11.23662109 16.95842285 11.171875 18.26953125 C11.1212793 19.51581299 11.07068359 20.76209473 11.01855469 22.04614258 C10.92993164 23.61904053 10.84130859 25.19193848 10.75 26.8125 C10.5025 31.824375 10.255 36.83625 10 42 C-0.56 41.67 -11.12 41.34 -22 41 C-22 40.67 -22 40.34 -22 40 C-12.1 40 -2.2 40 8 40 C8 31.09 8 22.18 8 13 C4.04 13 0.08 13 -4 13 C-3.34 12.01 -2.68 11.02 -2 10 C1.125 9.8125 1.125 9.8125 4 10 C3.154375 9.0925 2.30875 8.185 1.4375 7.25 C-0.00390625 5.703125 -0.00390625 5.703125 -1 4 C-0.65234375 1.796875 -0.65234375 1.796875 0 0 Z " fill="#035B5D" transform="translate(173,17)"/>
<path d="M0 0 C7.26 0 14.52 0 22 0 C22 0.99 22 1.98 22 3 C25.96 3 29.92 3 34 3 C33.34 3.99 32.68 4.98 32 6 C30.02880859 6.34057617 30.02880859 6.34057617 27.6484375 6.29296875 C26.79765625 6.28330078 25.946875 6.27363281 25.0703125 6.26367188 C24.18085938 6.23853516 23.29140625 6.21339844 22.375 6.1875 C21.4778125 6.17396484 20.580625 6.16042969 19.65625 6.14648438 C17.43690211 6.11106925 15.21874812 6.06168461 13 6 C12.731875 6.78375 12.46375 7.5675 12.1875 8.375 C11 11 11 11 8 13 C7.875 7.25 7.875 7.25 9 5 C6.03 4.67 3.06 4.34 0 4 C0 2.68 0 1.36 0 0 Z " fill="#086061" transform="translate(115,148)"/>
<path d="M0 0 C0.33 0 0.66 0 1 0 C1 10.89 1 21.78 1 33 C-7.25 32.67 -15.5 32.34 -24 32 C-24 31.34 -24 30.68 -24 30 C-17.07 30 -10.14 30 -3 30 C-3 21.42 -3 12.84 -3 4 C-9.27 4 -15.54 4 -22 4 C-22 3.67 -22 3.34 -22 3 C-15.07 3 -8.14 3 -1 3 C-0.67 2.01 -0.34 1.02 0 0 Z " fill="#106869" transform="translate(41,28)"/>
<path d="M0 0 C0.99 0 1.98 0 3 0 C3 2.97 3 5.94 3 9 C7.455 8.505 7.455 8.505 12 8 C13.60355101 11.50776784 14.22036864 14.14354879 14 18 C14.804375 18.2475 15.60875 18.495 16.4375 18.75 C19 20 19 20 20.0625 21.8125 C19.96825972 25.11090963 18.16400579 26.63926641 16 29 C15.67 27.02 15.34 25.04 15 23 C14.01 23 13.02 23 12 23 C11.67 23 11.34 23 11 23 C10.34 19.7 9.68 16.4 9 13 C5.37 12.67 1.74 12.34 -2 12 C-2 9 -2 9 -1 7 C-0.34 7 0.32 7 1 7 C0.67 4.69 0.34 2.38 0 0 Z " fill="#106869" transform="translate(61,87)"/>
<path d="M0 0 C3.3 0 6.6 0 10 0 C10.33 0.99 10.66 1.98 11 3 C8.69 3 6.38 3 4 3 C4 12.57 4 22.14 4 32 C2.68 32 1.36 32 0 32 C0 21.44 0 10.88 0 0 Z " fill="#44A09C" transform="translate(102,127)"/>
<path d="M0 0 C0 1.32 0 2.64 0 4 C-3.56044445 4.84228458 -7.12365344 5.67223903 -10.6875 6.5 C-12.19860352 6.85771484 -12.19860352 6.85771484 -13.74023438 7.22265625 C-14.71669922 7.44824219 -15.69316406 7.67382812 -16.69921875 7.90625 C-17.59471436 8.11572266 -18.49020996 8.32519531 -19.4128418 8.54101562 C-21.99969065 8.99994512 -24.37888974 9.08261971 -27 9 C-27 7.68 -27 6.36 -27 5 C-6.97913967 -0.16001555 -6.97913967 -0.16001555 0 0 Z " fill="#0F6868" transform="translate(67,112)"/>
<path d="M0 0 C9.24 0 18.48 0 28 0 C28 1.32 28 2.64 28 4 C18.76 4 9.52 4 0 4 C0 2.68 0 1.36 0 0 Z " fill="#0D6566" transform="translate(115,139)"/>
<path d="M0 0 C8.25 0 16.5 0 25 0 C24.67 9.9 24.34 19.8 24 30 C23.67 30 23.34 30 23 30 C23 21.09 23 12.18 23 3 C16.17862139 3.36813773 16.17862139 3.36813773 9.35791016 3.74829102 C8.08633057 3.81294556 8.08633057 3.81294556 6.7890625 3.87890625 C5.91975098 3.9260376 5.05043945 3.97316895 4.15478516 4.02172852 C2 4 2 4 0 3 C0 2.01 0 1.02 0 0 Z " fill="#02595B" transform="translate(16,28)"/>
<path d="M0 0 C0.99 0.66 1.98 1.32 3 2 C3.34057617 4.61376953 3.34057617 4.61376953 3.29296875 7.8828125 C3.28330078 9.04941406 3.27363281 10.21601563 3.26367188 11.41796875 C3.23853516 12.64128906 3.21339844 13.86460937 3.1875 15.125 C3.17396484 16.35605469 3.16042969 17.58710938 3.14648438 18.85546875 C3.1110383 21.90383082 3.05723007 24.95196909 3 28 C7.29 28 11.58 28 16 28 C15.01 28.33 14.02 28.66 13 29 C13 29.66 13 30.32 13 31 C10.91731407 31.08126087 8.83371342 31.13930839 6.75 31.1875 C5.00976562 31.23970703 5.00976562 31.23970703 3.234375 31.29296875 C-0.22268407 30.97982934 -1.51565563 30.34290892 -4 28 C-2.68 28 -1.36 28 0 28 C0 18.76 0 9.52 0 0 Z " fill="#02595B" transform="translate(106,131)"/>
<path d="M0 0 C0.721875 0.268125 1.44375 0.53625 2.1875 0.8125 C1.1875 3.8125 1.1875 3.8125 -1.8125 5.8125 C-1.1525 6.4725 -0.4925 7.1325 0.1875 7.8125 C0.1875 9.47916667 0.1875 11.14583333 0.1875 12.8125 C0.8475 13.4725 1.5075 14.1325 2.1875 14.8125 C2.3125 17.4375 2.3125 17.4375 2.1875 19.8125 C1.5275 19.8125 0.8675 19.8125 0.1875 19.8125 C-1.50390625 17.546875 -1.50390625 17.546875 -3.375 14.5625 C-3.99503906 13.58796875 -4.61507812 12.6134375 -5.25390625 11.609375 C-7.5947487 7.40876549 -7.5947487 7.40876549 -7.8125 4.8125 C-3.97611072 -0.26507405 -3.97611072 -0.26507405 0 0 Z " fill="#0A6263" transform="translate(127.8125,45.1875)"/>
<path d="M0 0 C3.15473719 0.35052635 4.8233534 0.86519076 7.375 2.8125 C9 5 9 5 8.8515625 6.77734375 C7.68696274 9.81705596 5.93483063 12.13797865 4 14.75 C3.278125 15.73484375 2.55625 16.7196875 1.8125 17.734375 C1.214375 18.48203125 0.61625 19.2296875 0 20 C-0.33 20 -0.66 20 -1 20 C-0.45022293 15.41852438 0.48225494 11.35086918 2 7 C2 6.34 2 5.68 2 5 C1.01 4.34 0.02 3.68 -1 3 C-0.67 2.01 -0.34 1.02 0 0 Z " fill="#0A6263" transform="translate(70,45)"/>
<path d="M0 0 C-0.33 1.32 -0.66 2.64 -1 4 C-3.22771342 4.50643553 -5.45724076 5.0048962 -7.6875 5.5 C-9.54955078 5.91765625 -9.54955078 5.91765625 -11.44921875 6.34375 C-14.42398218 6.89354126 -16.99368602 7.13795705 -20 7 C-20 5.68 -20 4.36 -20 3 C-6.3667426 -0.44419134 -6.3667426 -0.44419134 0 0 Z " fill="#0B6364" transform="translate(62,123)"/>
<path d="M0 0 C6.27 0 12.54 0 19 0 C19 1.32 19 2.64 19 4 C12.4 4 5.8 4 -1 4 C-0.67 2.68 -0.34 1.36 0 0 Z " fill="#0B6364" transform="translate(157,40)"/>
<path d="M0 0 C6.27 0.33 12.54 0.66 19 1 C19 1.33 19 1.66 19 2 C11.08 2.495 11.08 2.495 3 3 C2.67 13.23 2.34 23.46 2 34 C1.34 33.67 0.68 33.34 0 33 C0 22.11 0 11.22 0 0 Z " fill="#01585A" transform="translate(149,75)"/>
<path d="M0 0 C6.27 0 12.54 0 19 0 C19 1.32 19 2.64 19 4 C12.73 4 6.46 4 0 4 C0 2.68 0 1.36 0 0 Z " fill="#0A6263" transform="translate(157,33)"/>
<path d="M0 0 C1.32 0 2.64 0 4 0 C4.01981934 0.61520508 4.03963867 1.23041016 4.06005859 1.86425781 C4.15549727 4.65992542 4.26509955 7.4548651 4.375 10.25 C4.4059375 11.21808594 4.436875 12.18617187 4.46875 13.18359375 C4.50742188 14.11816406 4.54609375 15.05273438 4.5859375 16.015625 C4.6173584 16.87446289 4.6487793 17.73330078 4.68115234 18.61816406 C5.01716204 21.1282028 5.74191728 22.81932328 7 25 C5.68 25.33 4.36 25.66 3 26 C2.67 27.32 2.34 28.64 2 30 C-0.1519437 26.77208445 -0.20086443 25.71599191 0 22 C0.66 22 1.32 22 2 22 C1.86105852 18.89548451 1.712657 15.79149165 1.5625 12.6875 C1.52318359 11.80642578 1.48386719 10.92535156 1.44335938 10.01757812 C1.40146484 9.17001953 1.35957031 8.32246094 1.31640625 7.44921875 C1.26141968 6.27879028 1.26141968 6.27879028 1.20532227 5.0847168 C1.05874737 2.80670899 1.05874737 2.80670899 0 0 Z " fill="#116B6B" transform="translate(180,82)"/>
<path d="M0 0 C0.33 0 0.66 0 1 0 C1 9.24 1 18.48 1 28 C-0.65 28 -2.3 28 -4 28 C-2.68 27.67 -1.36 27.34 0 27 C-0.66 26.34 -1.32 25.68 -2 25 C-2.25878906 22.80102539 -2.25878906 22.80102539 -2.265625 20.09765625 C-2.26820313 19.12505859 -2.27078125 18.15246094 -2.2734375 17.15039062 C-2.26570312 16.13138672 -2.25796875 15.11238281 -2.25 14.0625 C-2.25773438 13.04736328 -2.26546875 12.03222656 -2.2734375 10.98632812 C-2.27085937 10.01244141 -2.26828125 9.03855469 -2.265625 8.03515625 C-2.26336914 7.1419165 -2.26111328 6.24867676 -2.25878906 5.32836914 C-2 3 -2 3 0 0 Z " fill="#02595B" transform="translate(186,79)"/>
<path d="M0 0 C5.94 0 11.88 0 18 0 C17.67 1.32 17.34 2.64 17 4 C11.39 4 5.78 4 0 4 C0 2.68 0 1.36 0 0 Z " fill="#0C6566" transform="translate(157,99)"/>
<path d="M0 0 C2.475 0.495 2.475 0.495 5 1 C5.103125 1.763125 5.20625 2.52625 5.3125 3.3125 C6.05600892 6.21894395 6.84858032 7.03566029 9 9 C9 9.66 9 10.32 9 11 C7.329375 11.4640625 7.329375 11.4640625 5.625 11.9375 C2.2054845 12.82326483 2.2054845 12.82326483 0 14 C0 9.38 0 4.76 0 0 Z " fill="#096163" transform="translate(168,16)"/>
<path d="M0 0 C7.26 0 14.52 0 22 0 C21.67 0.66 21.34 1.32 21 2 C20.01 1.67 19.02 1.34 18 1 C18 1.66 18 2.32 18 3 C13.05 3 8.1 3 3 3 C2.67 3.99 2.34 4.98 2 6 C1.34 6 0.68 6 0 6 C0 4.02 0 2.04 0 0 Z " fill="#035B5D" transform="translate(155,68)"/>
<path d="M0 0 C0.66 0.66 1.32 1.32 2 2 C1.67 3.32 1.34 4.64 1 6 C-11.54 6 -24.08 6 -37 6 C-37 5.67 -37 5.34 -37 5 C-25.78 5 -14.56 5 -3 5 C-3 4.34 -3 3.68 -3 3 C-6.3 2.67 -9.6 2.34 -13 2 C-13 1.67 -13 1.34 -13 1 C-10.87631556 0.77865824 -8.75095976 0.57329993 -6.625 0.375 C-5.44164063 0.25898438 -4.25828125 0.14296875 -3.0390625 0.0234375 C-2.03617188 0.01570312 -1.03328125 0.00796875 0 0 Z " fill="#25807F" transform="translate(122,157)"/>
<path d="M0 0 C2.625 0.375 2.625 0.375 5 1 C5.6875 3.8125 5.6875 3.8125 6 7 C4.8125 8.9375 4.8125 8.9375 3 10 C0.86254078 9.74853421 -0.45925779 9.54074221 -2 8 C-2.1875 5.0625 -2.1875 5.0625 -2 2 C-1.34 1.34 -0.68 0.68 0 0 Z " fill="#086062" transform="translate(113,69)"/>
<path d="M0 0 C4.70588235 0.70588235 4.70588235 0.70588235 6 2 C5.71269945 4.33944736 5.38063221 6.6739143 5 9 C3.1875 9.6875 3.1875 9.6875 1 10 C-0.8125 8.9375 -0.8125 8.9375 -2 7 C-1.56521739 1.56521739 -1.56521739 1.56521739 0 0 Z " fill="#086062" transform="translate(82,69)"/>
<path d="M0 0 C5.94 0 11.88 0 18 0 C18 0.99 18 1.98 18 3 C12.06 3 6.12 3 0 3 C0 2.01 0 1.02 0 0 Z " fill="#045B5D" transform="translate(157,92)"/>
<path d="M0 0 C3.26008643 3.16952847 6.22237877 6.39937989 9 10 C6.03 10 3.06 10 0 10 C0 6.7 0 3.4 0 0 Z " fill="#258180" transform="translate(153,140)"/>
<path d="M0 0 C4.95 0 9.9 0 15 0 C15 1.65 15 3.3 15 5 C14.34 4.67 13.68 4.34 13 4 C10.795636 3.77049681 8.58607827 3.58924067 6.375 3.4375 C5.18648437 3.35371094 3.99796875 3.26992187 2.7734375 3.18359375 C1.40058594 3.09271484 1.40058594 3.09271484 0 3 C0 2.01 0 1.02 0 0 Z " fill="#3A9490" transform="translate(158,71)"/>
<path d="M0 0 C3.63 0 7.26 0 11 0 C11 1.32 11 2.64 11 4 C7.37 4 3.74 4 0 4 C0 2.68 0 1.36 0 0 Z " fill="#0A6364" transform="translate(23,47)"/>
<path d="M0 0 C3.63 0 7.26 0 11 0 C11 1.32 11 2.64 11 4 C7.37 4 3.74 4 0 4 C0 2.68 0 1.36 0 0 Z " fill="#0B6465" transform="translate(23,39)"/>
<path d="M0 0 C4.62 0 9.24 0 14 0 C14 0.99 14 1.98 14 3 C9.38 3 4.76 3 0 3 C0 2.01 0 1.02 0 0 Z " fill="#045C5E" transform="translate(156,48)"/>
<path d="M0 0 C2 3.75 2 3.75 2 6 C7.445 5.505 7.445 5.505 13 5 C12.01 5.33 11.02 5.66 10 6 C10 6.66 10 7.32 10 8 C7.36 8.66 4.72 9.32 2 10 C-0.09350689 6.5980513 -0.17942163 3.94727588 0 0 Z " fill="#055C5E" transform="translate(34,137)"/>
<path d="M0 0 C2.31 0 4.62 0 7 0 C6.67 0.66 6.34 1.32 6 2 C5.01 2.33 4.02 2.66 3 3 C2.67 11.25 2.34 19.5 2 28 C1.67 28 1.34 28 1 28 C0.67 18.76 0.34 9.52 0 0 Z " fill="#075F61" transform="translate(106,130)"/>
<path d="M0 0 C0.99 0.33 1.98 0.66 3 1 C2.67 2.65 2.34 4.3 2 6 C2.99 6.33 3.98 6.66 5 7 C2.36 7.33 -0.28 7.66 -3 8 C-1.125 1.125 -1.125 1.125 0 0 Z " fill="#126A6B" transform="translate(129,126)"/>
<path d="M0 0 C3 1 3 1 4 3 C6.52733235 3.65555119 6.52733235 3.65555119 9 4 C7 6 7 6 4 7 C2.31461399 8.99665314 2.31461399 8.99665314 1 11 C-0.32 10.67 -1.64 10.34 -3 10 C-1.68 9.34 -0.36 8.68 1 8 C0.67 5.36 0.34 2.72 0 0 Z " fill="#055C5E" transform="translate(55,95)"/>
<path d="M0 0 C1.953125 0.6796875 1.953125 0.6796875 4 2 C4.609375 4.3828125 4.609375 4.3828125 4.75 7.125 C4.80671875 8.03507812 4.8634375 8.94515625 4.921875 9.8828125 C4.94765625 10.58148438 4.9734375 11.28015625 5 12 C4.01 11.67 3.02 11.34 2 11 C0.60955102 7.12137916 0 4.13537997 0 0 Z " fill="#045C5E" transform="translate(73,108)"/>
<path d="M0 0 C1.875 0.25 1.875 0.25 4 1 C5.25 3.0625 5.25 3.0625 6 5 C7.32 5 8.64 5 10 5 C10 5.66 10 6.32 10 7 C6.33924624 7.3327958 4.60499012 7.46170299 1.625 5.1875 C0 3 0 3 0 0 Z " fill="#055D5F" transform="translate(86,90)"/>
<path d="M0 0 C0 1.98 0 3.96 0 6 C-2.64 6 -5.28 6 -8 6 C-3.375 0 -3.375 0 0 0 Z " fill="#258888" transform="translate(52,144)"/>
<path d="M0 0 C1.32 0 2.64 0 4 0 C4 7.26 4 14.52 4 22 C3.67 22 3.34 22 3 22 C2.95101562 20.91460937 2.90203125 19.82921875 2.8515625 18.7109375 C2.77648014 17.26560216 2.70093472 15.82029081 2.625 14.375 C2.57859375 13.30572266 2.57859375 13.30572266 2.53125 12.21484375 C2.28979845 7.82847392 1.60657269 4.1405166 0 0 Z " fill="#268180" transform="translate(180,82)"/>
<path d="M0 0 C1.9375 0.6875 1.9375 0.6875 4 2 C4.875 4.4375 4.875 4.4375 5 7 C3 10 3 10 1 12 C1.04125 11.05125 1.0825 10.1025 1.125 9.125 C1.34973818 5.89755144 1.34973818 5.89755144 -1 4 C-0.625 1.875 -0.625 1.875 0 0 Z " fill="#116A6A" transform="translate(60,64)"/>
<path d="M0 0 C0.99 0 1.98 0 3 0 C3 4.62 3 9.24 3 14 C2.34 14 1.68 14 1 14 C-0.14806378 4.58997722 -0.14806378 4.58997722 0 0 Z " fill="#25807F" transform="translate(95,140)"/>
<path d="M0 0 C1.8871875 0.0309375 1.8871875 0.0309375 3.8125 0.0625 C3.4825 1.0525 3.1525 2.0425 2.8125 3.0625 C0.1725 3.3925 -2.4675 3.7225 -5.1875 4.0625 C-5.1875 3.4025 -5.1875 2.7425 -5.1875 2.0625 C-5.8475 1.7325 -6.5075 1.4025 -7.1875 1.0625 C-4.43671116 0.14557039 -2.82801087 -0.04636083 0 0 Z " fill="#065E5F" transform="translate(73.1875,135.9375)"/>
<path d="M0 0 C-0.33 1.32 -0.66 2.64 -1 4 C-5.29 4 -9.58 4 -14 4 C-14 3.34 -14 2.68 -14 2 C-12.04200486 1.66468585 -10.08359226 1.33180857 -8.125 1 C-6.48917969 0.7215625 -6.48917969 0.7215625 -4.8203125 0.4375 C-2 0 -2 0 0 0 Z " fill="#045C5E" transform="translate(136,132)"/>
<path d="M0 0 C2.0625 0.4375 2.0625 0.4375 4 1 C3.01 1.66 2.02 2.32 1 3 C1.66 3.33 2.32 3.66 3 4 C2.67 4.66 2.34 5.32 2 6 C-0.0625 6.625 -0.0625 6.625 -2 7 C-2 6.34 -2 5.68 -2 5 C-3.32 5 -4.64 5 -6 5 C-6 4.34 -6 3.68 -6 3 C-5.195625 2.690625 -4.39125 2.38125 -3.5625 2.0625 C-1.10919595 1.23664655 -1.10919595 1.23664655 0 0 Z " fill="#106869" transform="translate(98,90)"/>
<path d="M0 0 C1.65 0.99 3.3 1.98 5 3 C4.3405469 6.69293736 3.47070566 7.70572579 1 11 C0.67 7.37 0.34 3.74 0 0 Z " fill="#2D8D8C" transform="translate(76,105)"/>
<path d="M0 0 C2 2 2 2 2 5 C0.35 5 -1.3 5 -3 5 C-3 4.34 -3 3.68 -3 3 C-6.3 2.67 -9.6 2.34 -13 2 C-13 1.67 -13 1.34 -13 1 C-10.87631556 0.77865824 -8.75095976 0.57329993 -6.625 0.375 C-5.44164063 0.25898438 -4.25828125 0.14296875 -3.0390625 0.0234375 C-2.03617188 0.01570312 -1.03328125 0.00796875 0 0 Z " fill="#187272" transform="translate(122,157)"/>
<path d="M0 0 C-0.66 1.65 -1.32 3.3 -2 5 C-4.97 4.505 -4.97 4.505 -8 4 C-8.33 3.01 -8.66 2.02 -9 1 C-5.8035914 -0.06546953 -3.34252724 -0.07427838 0 0 Z " fill="#075F61" transform="translate(73,95)"/>
<path d="M0 0 C2.31 0 4.62 0 7 0 C7.33 1.32 7.66 2.64 8 4 C5.03 3.67 2.06 3.34 -1 3 C-0.67 2.01 -0.34 1.02 0 0 Z " fill="#045C5D" transform="translate(124,114)"/>
<path d="M0 0 C2.64 0 5.28 0 8 0 C8 0.99 8 1.98 8 3 C5.03 3 2.06 3 -1 3 C-0.67 2.01 -0.34 1.02 0 0 Z " fill="#035A5C" transform="translate(96,42)"/>
<path d="M0 0 C0.66 0 1.32 0 2 0 C3.38938077 1.96147874 4.7260411 3.96166576 6 6 C4.02 6 2.04 6 0 6 C0 4.02 0 2.04 0 0 Z " fill="#328F8C" transform="translate(171,80)"/>
<path d="M0 0 C-0.33 0.99 -0.66 1.98 -1 3 C-1.99 3 -2.98 3 -4 3 C-4.33 3.66 -4.66 4.32 -5 5 C-6.32 3.68 -7.64 2.36 -9 1 C-5.846632 0.29925156 -3.27275026 0 0 0 Z " fill="#166E6F" transform="translate(56,114)"/>
<path d="M0 0 C0.33 1.32 0.66 2.64 1 4 C1.66 4 2.32 4 3 4 C3.33 3.34 3.66 2.68 4 2 C4 2.99 4 3.98 4 5 C2 7 2 7 -0.625 7.125 C-1.40875 7.08375 -2.1925 7.0425 -3 7 C-2.01 4.69 -1.02 2.38 0 0 Z " fill="#1A7272" transform="translate(115,125)"/>
<path d="M0 0 C1.60080151 4.00200378 0.29279692 7.04556236 -1 11 C-1.33 11 -1.66 11 -2 11 C-2.96891192 5.62694301 -2.96891192 5.62694301 -3 3 C-1.5625 1 -1.5625 1 0 0 Z " fill="#176F6F" transform="translate(34,124)"/>
<path d="M0 0 C1.7074998 1.28062485 3.37373596 2.61767557 5 4 C5 4.66 5 5.32 5 6 C3.35 6 1.7 6 0 6 C0 4.02 0 2.04 0 0 Z " fill="#389692" transform="translate(172,21)"/>
<path d="M0 0 C0.66 0.33 1.32 0.66 2 1 C2 3.31 2 5.62 2 8 C1.01 8 0.02 8 -1 8 C-0.67 5.36 -0.34 2.72 0 0 Z " fill="#085F61" transform="translate(34,128)"/>
<path d="M0 0 C0.33 0 0.66 0 1 0 C1 1.65 1 3.3 1 5 C1.66 5 2.32 5 3 5 C2.67 6.65 2.34 8.3 2 10 C1.34 9.67 0.68 9.34 0 9 C0 6.03 0 3.06 0 0 Z " fill="#177070" transform="translate(95,149)"/>
<path d="M0 0 C0.7425 0.0825 1.485 0.165 2.25 0.25 C1.92 1.24 1.59 2.23 1.25 3.25 C-1.39 3.58 -4.03 3.91 -6.75 4.25 C-3.42692308 0.31153846 -3.42692308 0.31153846 0 0 Z " fill="#035A5C" transform="translate(58.75,113.75)"/>
<path d="M0 0 C0 0.33 0 0.66 0 1 C-3.96 1 -7.92 1 -12 1 C-7.98716318 -3.01283682 -5.03280241 -1.94449184 0 0 Z " fill="#67C6BB" transform="translate(169,46)"/>
<path d="M0 0 C1.65 0 3.3 0 5 0 C3.68 0.33 2.36 0.66 1 1 C1.33 2.32 1.66 3.64 2 5 C0.68 5.33 -0.64 5.66 -2 6 C-1.34 4.02 -0.68 2.04 0 0 Z " fill="#156F6F" transform="translate(136,18)"/>
</svg>
